<?xml version="1.0" encoding="UTF-8" standalone="no"?>
<!-- Created with Inkscape (http://www.inkscape.org/) -->

<svg
   xmlns:dc="http://purl.org/dc/elements/1.1/"
   xmlns:cc="http://creativecommons.org/ns#"
   xmlns:rdf="http://www.w3.org/1999/02/22-rdf-syntax-ns#"
   xmlns:svg="http://www.w3.org/2000/svg"
   xmlns="http://www.w3.org/2000/svg"
   xmlns:xlink="http://www.w3.org/1999/xlink"
   xmlns:sodipodi="http://sodipodi.sourceforge.net/DTD/sodipodi-0.dtd"
   xmlns:inkscape="http://www.inkscape.org/namespaces/inkscape"
   id="svg2"
   version="1.1"
   inkscape:version="0.48.5 r10040"
   width="2481"
   height="3503"
   sodipodi:docname="E37P07.svg"
   inkscape:export-filename="/Users/su_huynh/Downloads/lang 3/vi/E37P07.png"
   inkscape:export-xdpi="45"
   inkscape:export-ydpi="45">
  <metadata
     id="metadata8">
    <rdf:RDF>
      <cc:Work
         rdf:about="">
        <dc:format>image/svg+xml</dc:format>
        <dc:type
           rdf:resource="http://purl.org/dc/dcmitype/StillImage" />
        <dc:title></dc:title>
      </cc:Work>
    </rdf:RDF>
  </metadata>
  <defs
     id="defs6">
    <filter
       style="color-interpolation-filters:sRGB"
       id="filter4375-4-1-1-1-9-6-9-2-1-5-4"
       inkscape:label="deevad outline effect"
       x="-0.007108724"
       y="-0.012620398"
       width="1.0142174"
       height="1.0252408">
      <feFlood
         id="feFlood4377-7-9-0-8-1-0-2-2-06-5-3"
         flood-opacity="1"
         flood-color="rgb(0,0,0)"
         result="flood" />
      <feComposite
         id="feComposite4379-3-8-8-2-77-6-0-8-3-8-64"
         in2="SourceGraphic"
         in="flood"
         operator="in"
         result="composite1" />
      <feMorphology
         id="feMorphology4393-1-0-49-8-9-2-2-9-2-7-3"
         operator="dilate"
         radius="4"
         result="result3" />
      <feComposite
         id="feComposite4385-9-5-7-0-8-6-3-7-0-1-1"
         in2="result3"
         in="SourceGraphic"
         operator="over"
         result="composite2" />
    </filter>
  </defs>
  <sodipodi:namedview
     pagecolor="#ffffff"
     bordercolor="#666666"
     borderopacity="1"
     objecttolerance="10"
     gridtolerance="10"
     guidetolerance="10"
     inkscape:pageopacity="0"
     inkscape:pageshadow="2"
     inkscape:window-width="1276"
     inkscape:window-height="724"
     id="namedview4"
     showgrid="false"
     inkscape:zoom="0.33114989"
     inkscape:cx="1626.669"
     inkscape:cy="531.89076"
     inkscape:window-x="0"
     inkscape:window-y="0"
     inkscape:window-maximized="0"
     inkscape:current-layer="layer1"
     inkscape:pagecheckerboard="0"
     inkscape:showpageshadow="0"
     inkscape:deskcolor="#d1d1d1" />
  <g
     inkscape:groupmode="layer"
     id="layer2"
     inkscape:label="artwork"
     sodipodi:insensitive="true">
    <image
       sodipodi:absref="/Users/su_huynh/Downloads/lang 3/vi/../gfx_Pepper-and-Carrot_by-David-Revoy_E37P07.png"
       xlink:href="../gfx_Pepper-and-Carrot_by-David-Revoy_E37P07.png"
       y="0"
       x="0"
       id="image10"
       height="3503"
       width="2481" />
  </g>
  <g
     inkscape:groupmode="layer"
     id="layer3"
     inkscape:label="speechbubbles">
    <path
       style="display:inline;fill:#ffffff;fill-rule:evenodd;stroke:none;stroke-width:1.11956px;stroke-linecap:butt;stroke-linejoin:miter;stroke-opacity:1"
       d="m 1921.7927,1520.1844 c -35.9251,-2.1925 -88.0218,13.4421 -57.8055,58.5611 -65.9732,-29.567 -202.9817,-48.1547 -224.7658,1.0987 -3.6662,-60.2413 -39.3862,-51.5044 -75.8826,-36.998 34.734,-24.7327 6.7781,-21.3252 -27.4203,-21.8573 70.8688,-53.3939 32.4763,-68.9295 3.4743,-87.7194 71.4105,12.7179 53.4447,-16.055 61.4812,-32.7562 61.9363,35.9406 106.0033,26.017 140.0668,-9.5823 18.8186,18.4744 25.6222,57.4177 91.4864,-4.2556 -23.4149,52.4495 8.9678,46.2344 60.9433,19.421 -7.7763,17.8595 -56.1072,45.885 26.4484,41.1043 -51.1595,18.0168 -61.3678,41.0217 1.9738,72.9837 z"
       id="path4584-8"
       inkscape:connector-curvature="0"
       sodipodi:nodetypes="cccccccccccc" />
    <path
       style="fill:#ffffff;stroke:none"
       d="m 1654.0353,1547.2051 c -44.0779,1.1621 -89.6795,11.6742 -126.1276,41.0827 -27.3515,26.2001 -35.8613,71.1487 -27.3203,109.4431 6.6122,31.1828 27.7077,57.0123 53.6432,69.3402 37.9265,20.4039 80.821,22.0018 122.0577,22.7787 44.8607,0.4308 89.7963,0.4345 134.5652,-3.1518 33.5806,-3.4927 68.0696,-10.3668 97.3792,-30.2059 25.8927,-21.8961 36.0369,-60.7231 33.7238,-96.0194 -2.1876,-37.5318 -22.934,-72.8023 -52.8529,-89.3911 -33.9091,-21.053 -73.6959,-24.0865 -111.6155,-22.7236 -37.4737,0.877 -74.9616,0.4099 -112.4146,-1.1286 -3.6792,-0.059 -7.3588,-0.055 -11.0382,-0.024 z"
       id="path3280-8-0-3"
       inkscape:connector-curvature="0"
       sodipodi:nodetypes="csssc" />
    <path
       style="fill:#ffffff;fill-rule:evenodd;stroke:none;stroke-width:1px;stroke-linecap:butt;stroke-linejoin:miter;stroke-opacity:1"
       d="m 1918.6061,1746.1574 c 19.1204,15.4627 39.0722,32.1803 63.6123,29.0086 -15.036,6.0295 -43.8148,9.8246 -66.282,-5.5838 -35.0644,-24.0476 0.2146,-23.9396 0.2146,-23.9396 z"
       id="path4248"
       inkscape:connector-curvature="0"
       sodipodi:nodetypes="ccscc" />
    <path
       style="fill:#ffffff;fill-rule:evenodd;stroke:none;stroke-width:0.84259px;stroke-linecap:butt;stroke-linejoin:miter;stroke-opacity:1"
       d="m 209.18843,2520.692 c 13.91687,18.6091 30.69058,26.056 55.768,1.0613 20.456,6.0403 20.31799,24.7701 87.33472,2.1218 -38.46395,28.588 -22.32998,30.9026 0,30.236 -32.44044,37.0364 -4.7759,31.2953 7.36561,36.6022 -39.75751,22.3704 -34.5481,32.8673 -15.78336,39.7846 -13.40496,13.5521 -22.77006,26.6965 5.26103,36.0712 -21.92211,3.6978 -52.96264,2.0329 -43.14122,24.4014 -34.8096,-14.1518 -59.10343,-10.2794 -79.96913,-0.5309 -18.00279,-12.9686 -32.62185,-29.3494 -83.12584,-9.548 27.96981,-21.9401 16.90362,-32.9472 -5.26117,-40.8458 41.64075,-21.2391 9.13426,-28.6347 -23.14898,-36.0712 58.36414,-2.5541 41.77684,-26.0994 26.30571,-49.3332 27.32733,4.6669 54.75149,9.6745 68.39463,-33.9494 z"
       id="path4489"
       inkscape:connector-curvature="0"
       sodipodi:nodetypes="cccccccccccccc" />
    <path
       style="color:#000000;display:inline;overflow:visible;visibility:visible;fill:#ffffff;fill-opacity:1;fill-rule:nonzero;stroke:none;stroke-width:1px;marker:none;enable-background:accumulate"
       d="m 194.15137,2627.0953 c 14.3116,13.119 20.5898,27.322 21.7824,31.497 1.1926,4.174 -2.1039,30.52 2.0703,35.291 4.1742,4.77 19.6785,5.366 21.4675,8.944 1.7889,3.578 -3.5779,22.064 0,25.642 3.5779,3.578 28.6232,13.119 29.8159,16.101 1.1926,2.981 7.7521,19.082 19.6784,31.604 -11.33,-31.604 -7.7521,-38.164 -11.9263,-42.934 -4.1742,-4.771 -15.9274,-10.181 -18.3127,-15.548 -2.3853,-5.367 6.711,-25.728 0.086,-28.027 -4.7705,-4.77 -19.8083,-10.267 -19.8083,-10.267 4.1743,-4.771 18.356,-27.854 -1.3225,-55.881 -19.6785,-28.027 -43.5312,3.578 -43.5312,3.578 z"
       id="path5050-8"
       inkscape:connector-curvature="0"
       sodipodi:nodetypes="csccscccccccc" />
    <path
       style="color:#000000;fill:#ffffff;fill-opacity:1;fill-rule:nonzero;stroke:none;stroke-width:1.20337999px;marker:none;visibility:visible;display:inline;overflow:visible;enable-background:accumulate"
       d="m 1029.9262,2698.1663 c 2.6756,-50.3777 52.0106,-84.1254 173.4155,-75.284 65.0307,4.7367 138.8195,7.6801 135.6532,81.4762 -3.1661,73.7962 -109.1604,72.4521 -130.995,74.2916 -21.8346,1.8394 -136.5211,-0.49 -157.0022,-25.4802 -12.8208,-15.6437 -21.0814,-39.4049 -21.0715,-55.0036 z"
       id="path4546-6-89"
       inkscape:connector-curvature="0"
       sodipodi:nodetypes="cssssc" />
    <path
       style="color:#000000;display:inline;overflow:visible;visibility:visible;fill:#ffffff;fill-opacity:1;fill-rule:nonzero;stroke:none;stroke-width:1px;marker:none;enable-background:accumulate"
       d="m 1112.3939,2718.8111 c -36.5658,59.4022 -50.7173,145.4159 26.0841,179.4136 -60.0157,-38.5902 -23.0543,-135.4959 8.3656,-161.6817 21.2953,-14.4935 -34.4497,-17.7319 -34.4497,-17.7319 z"
       id="path3978-4"
       inkscape:connector-curvature="0"
       sodipodi:nodetypes="cccc" />
    <path
       style="color:#000000;fill:#ffffff;fill-opacity:1;fill-rule:nonzero;stroke:none;stroke-width:1.69255996px;marker:none;visibility:visible;display:inline;overflow:visible;enable-background:accumulate"
       d="m 259.53916,839.03615 c -84.13586,3.32597 -135.70964,-5.16637 -178.718278,69.90547 -7.741152,13.51223 -7.827793,29.85431 -8.414281,45.10562 -3.046956,79.23446 43.925459,110.52116 106.489019,116.32076 47.25536,4.3805 94.79718,7.2317 142.18819,3.7811 139.43563,-10.1523 191.85769,-28.574 204.50159,-112.55021 4.67287,-31.03552 -5.97089,-67.04017 -33.23869,-83.74013 -62.6697,-38.3816 -165.88183,-41.46825 -232.80755,-38.82261 z"
       id="path3365-9"
       inkscape:connector-curvature="0"
       sodipodi:nodetypes="ssssssss"
       inkscape:transform-center-x="-458.17804"
       inkscape:transform-center-y="149.04249" />
    <path
       style="fill:#ffffff;fill-rule:evenodd;stroke:none;stroke-width:0.977223px;stroke-linecap:butt;stroke-linejoin:miter;stroke-opacity:1"
       d="m 1104.6778,920.64705 c 8.668,-65.50225 80.129,-92.81872 156.1733,-86.01322 35.6447,3.18999 95.1971,-3.04759 114.5504,11.64251 21.9351,16.64965 4.1454,62.88484 4.872,82.82731 0.2956,31.1419 -9.5819,78.95915 -87.8018,88.82865 -78.22,9.8696 -194.7545,-2.882 -187.7939,-97.28525 z"
       id="path912"
       inkscape:connector-curvature="0"
       sodipodi:nodetypes="csscsc" />
    <path
       style="color:#000000;display:inline;overflow:visible;visibility:visible;fill:#ffffff;fill-opacity:1;fill-rule:nonzero;stroke:none;stroke-width:0.989872px;marker:none;enable-background:accumulate"
       d="m 473.4959,1110.2215 c -40.3937,1.8691 -54.77121,0.1547 -74.36032,-43.9141 -19.5892,-44.0678 -35.24613,-35.3212 -35.24613,-35.3212 l -26.14855,14.5263 c 0,0 69.82372,109.5525 135.755,64.709 z"
       id="path3072-5-5"
       inkscape:connector-curvature="0"
       sodipodi:nodetypes="ccccc" />
    <path
       style="color:#000000;display:inline;overflow:visible;visibility:visible;fill:#ffffff;fill-opacity:1;fill-rule:nonzero;stroke:none;stroke-width:1.18666px;marker:none;enable-background:accumulate"
       d="m 1238.4789,978.3037 c 6.1098,35.65 -0.6324,117.9014 -118.1167,120.6282 67.0346,-18.7772 84.3388,-47.5207 79.194,-93.2904 -3.3137,-29.47951 9.6095,-29.94973 9.6095,-29.94973 z"
       id="path4440-1"
       inkscape:connector-curvature="0"
       sodipodi:nodetypes="ccscc" />
    <path
       style="fill:#ffffff;fill-rule:evenodd;stroke:none;display:inline"
       d="m 1585.1681,846.10016 c 26.3605,1.43741 22.5722,30.2986 -7.7879,32.52833 28.0864,11.07394 20.719,16.55772 5.0825,20.73654 30.1077,49.96334 14.4282,36.92487 -2.3285,65.39244 43.0121,-10.29071 40.2449,15.90833 47.5031,34.11683 15.0142,-33.93418 15.6457,-11.3404 12.2643,27.0265 16.9832,-44.0327 23.998,-47.0666 21.9255,-12.7143 13.6687,-27.6181 26.8834,-37.5698 39.5761,-27.2159 31.5935,-24.19393 50.6906,-7.4248 36.1982,25.824 35.7363,-36.4952 44.1511,-36.5499 49.0609,-15.3076 5.9072,-15.7172 10.2227,-38.49762 30.4914,-1.4653 5.4474,-43.91327 14.4338,-6.6044 21.1914,-0.9801 3.3136,-42.1807 47.9092,-24.67207 51.3068,-5.0224 -2.3606,-8.6471 -1.8865,-18.0901 1.9332,-28.47237 -3.4945,-14.95333 -3.0232,-0.005 -0.4686,-15.10804 -3.7153,-26.67646 1.3753,-35.64662 4.2686,-58.04025 -4.8014,8.79645 -8.0169,-36.83532 -7.7937,-39.40497 -7.6052,1.71777 -51.138,-0.36731 -44.1109,-1.28703 -35.0113,2.22104 -27.5902,0.137 -32.8049,-0.66509 -76.0477,-8.26292 -75.0416,-0.48864 -86.6808,-2.19083 -15.965,3.40129 -28.7159,1.98864 -41.4539,0.55613 -7.4728,2.90754 -15.0766,2.0104 -22.6779,1.19283 -4.7376,1.24643 -15.4245,1.56075 -34.1327,0.61834 12.1542,1.10599 2.3884,1.23425 -40.5622,-0.11776 z"
       id="path4289-9"
       inkscape:connector-curvature="0"
       sodipodi:nodetypes="cccccccccccccccccccccccc" />
    <path
       style="color:#000000;fill:#ffffff;fill-opacity:1;fill-rule:nonzero;stroke:none;stroke-width:1px;marker:none;visibility:visible;display:inline;overflow:visible;enable-background:accumulate"
       d="m 1669.8183,1055.0591 c 52.9673,-34.0351 71.8625,-58.8898 88.416,-83.1049 7.7887,-11.3942 -22.5092,-17.40291 -22.5092,-17.40291 l -11.5344,24.88391 c 0,0 -12.622,41.2034 -54.3724,75.6239 z"
       id="path4000-2"
       inkscape:connector-curvature="0"
       sodipodi:nodetypes="csccc"
       inkscape:transform-center-x="-308.61774"
       inkscape:transform-center-y="-55.962808" />
    <path
       style="color:#000000;display:inline;overflow:visible;visibility:visible;fill:#ffffff;fill-opacity:1;fill-rule:nonzero;stroke:none;stroke-width:0.999997px;marker:none;enable-background:accumulate"
       d="m 2170.571,904.03926 c -16.097,3.14561 -32.5505,0.63413 -48.5155,5.35703 -11.3625,2.8156 -23.0725,5.10696 -34.547,2.86631 -8.1132,-1.11144 -16.807,0.059 -23.9449,5.61905 -10.0322,7.00839 -18.9445,16.38853 -26.7544,26.89538 -3.7625,5.46121 -7.1464,12.047 -7.3094,19.38683 0.1042,7.51594 3.6049,14.13124 7.8204,19.0879 8.4216,10.81727 20.278,16.84734 32.3315,18.18114 13.7213,2.5717 26.8288,9.1178 40.8267,9.7192 7.6773,0.1317 15.3467,-2.7831 22.999,-1.4161 5.847,1.0945 11.1207,4.5286 16.7345,6.5683 5.0172,1.6681 10.4834,1.6242 15.4368,-0.7077 6.3114,-2.3847 12.8172,-5.4223 19.4661,-4.2908 10.9798,1.0722 22.0479,-0.066 32.981,-1.9702 7.7524,-1.0714 15.7863,-1.4755 23.0472,-5.5698 8.8534,-6.5439 15.9266,-16.04456 23.4684,-24.64025 3.36,-4.33179 5.9584,-10.43444 4.9524,-16.51588 -0.9425,-7.09545 -5.1529,-12.71634 -9.9645,-16.22189 -8.9141,-8.19555 -17.8014,-16.59216 -25.3674,-26.72066 -5.7145,-5.42411 -13.3094,-6.50281 -20.3659,-5.76243 -10.1415,0.41892 -20.1934,-2.16947 -29.572,-6.60063 -4.4558,-1.66413 -9.0224,-3.11542 -13.723,-3.2648 z"
       id="path3365-8"
       inkscape:connector-curvature="0"
       sodipodi:nodetypes="cssccsc" />
    <path
       style="display:inline;fill:#ffffff;fill-opacity:1;fill-rule:evenodd;stroke:none;stroke-width:1px;stroke-linecap:butt;stroke-linejoin:miter;stroke-opacity:1"
       d="m 2214.3795,960.14643 c -1.4297,8.459 7.6905,12.502 13.3057,16.588 7.0937,5.072 5.0374,15.927 -2.8535,18.922 -6.6614,2.438 -9.0687,9.33897 -9.5278,15.82497 0.6979,7.757 3.662,13.46 2.8543,19.998 0.7758,9.959 11.0423,12.466 10.1091,22.941 -0.9566,6.951 -5.9088,9.739 -12.2778,13.752 2.1992,4.9978 -11.1367,21.6776 -16.8896,25.4794 7.8261,-4.4494 22.2841,-11.4819 25.4378,-21.2415 12.9454,-6.0505 22.9576,-18.2077 12.7096,-32.1719 -7.4268,-8.207 -10.2366,-22.295 -1.8919,-30.861 6.0058,-4.627 13.7043,-10.08597 12.902,-18.73797 -2.3975,-11.731 -3.0261,-25.609 -12.9899,-33.83 -5.6468,-3.884 -8.5965,-13.223 -16.3596,-12.996 -6.7189,2.442 -5.6829,10.787 -4.5284,16.333 z"
       id="path4396-1"
       inkscape:connector-curvature="0"
       sodipodi:nodetypes="ccccccccccccccc" />
    <path
       style="color:#000000;display:inline;overflow:visible;visibility:visible;fill:#ffffff;fill-opacity:1;fill-rule:nonzero;stroke:none;stroke-width:0.58297px;marker:none;enable-background:accumulate"
       d="m 1925.1424,869.40511 c 9.7784,-12.51422 117.4695,-21.42748 145.3353,6.87679 19.4198,19.72576 18.3957,55.40763 1.7504,65.25521 -16.6451,9.84672 -97.0072,12.61998 -119.8474,7.60573 -20.5392,-4.50995 -42.0981,-14.21594 -43.2348,-40.05023 -0.4639,-10.54418 6.218,-27.17241 15.9965,-39.6875 z"
       id="path4040-3"
       inkscape:connector-curvature="0"
       sodipodi:nodetypes="zssssz" />
    <path
       style="color:#000000;display:inline;overflow:visible;visibility:visible;fill:#ffffff;fill-opacity:1;fill-rule:nonzero;stroke:none;stroke-width:0.999998px;marker:none;enable-background:accumulate"
       d="m 189.82826,1379.8767 c -6.61016,24.314 -43.89296,26.3529 -57.61779,21.4114 27.66598,27.2004 26.70152,44.1006 -10.86128,46.7242 62.99339,49.023 11.51606,41.6049 1.36256,54.0355 49.4615,16.8949 27.33186,37.9196 18.52597,58.8502 56.85112,0.7194 38.24636,34.2706 40.64254,60.9912 4.8196,-12.5383 27.71603,-50.7126 29.09366,-8.2089 37.60372,-40.55 82.89635,-66.7436 86.49279,4.2203 15.15114,-35.7003 41.29632,-50.2858 40.13333,-7.7067 37.53972,-55.3803 60.23483,-35.9478 94.16952,-20.2953 -9.11029,-20.0809 -28.29904,-49.5367 38.7861,-36.3768 -37.3192,-23.6587 -8.29092,-30.9155 11.35477,-36.0393 -15.88479,-10.0078 -18.81229,-20.331 10.68219,-31.4395 -22.44361,-1.0753 -43.37242,-3.2771 -17.04117,-41.1617 -8.26086,-0.9176 -40.25615,32.0157 -23.44838,-60.4998 -26.12721,29.6177 -54.00264,45.964 -88.96095,-16.0771 -16.54397,30.9951 -45.23915,46.3321 -57.72309,7.6174 -4.4869,16.504 -23.09218,22.7118 -38.88672,23.4638 -6.10779,-6.5556 -12.40727,-15.4598 -18.98094,-27.1263 -10.74432,24.4961 -26.81658,41.0404 -57.72311,7.6174 z"
       id="path3549-3-7-3"
       inkscape:connector-curvature="0"
       sodipodi:nodetypes="cccccccccccccccccccc" />
    <path
       style="color:#000000;display:inline;overflow:visible;visibility:visible;fill:#ffffff;fill-opacity:1;fill-rule:nonzero;stroke:none;stroke-width:1px;marker:none;enable-background:accumulate"
       d="m 287.3927,1556.3317 c -6.75576,12.853 -43.26253,45.4194 -53.2553,55.6175 4.16934,1.1193 18.49163,-0.6612 23.70885,-0.424 -28.18696,30.3633 -75.14135,49.9921 -114.1922,49.1115 24.25327,-6.1985 48.19266,-15.9707 67.33595,-32.4693 1.27157,-1.27 2.94318,-2.2742 3.93941,-3.7153 0.44585,-1.5091 -1.22772,-1.1492 -2.12241,-1.2189 -6.48954,-0.5288 -13.00655,-0.3703 -19.51056,-0.3998 15.86642,-14.3214 47.17809,-46.8583 52.52599,-64.6698 4.97614,-0.092 37.13148,-4.0317 41.79442,-2.4536 3.48254,-1.6486 2.08311,1.2448 2.00837,1.4519 z"
       id="path5066-7"
       inkscape:connector-curvature="0"
       sodipodi:nodetypes="cccccccccccc" />
    <path
       style="fill:#ffffff;fill-rule:evenodd;stroke:none;stroke-width:1px;stroke-linecap:butt;stroke-linejoin:miter;stroke-opacity:1"
       d="m 157.8069,2096.6973 c 7.4959,18.2948 15.02654,35.498 39.34133,-13.5676 -2.74445,14.6793 0.45019,39.1305 36.25433,16.6856 -20.31902,28.0034 -11.79607,30.2706 0,29.6177 -17.13704,36.279 -2.52293,30.6553 3.89097,35.8536 -21.00237,21.913 -18.25044,32.1952 -8.33775,38.971 -7.08132,13.275 -12.02854,26.1506 2.7792,35.3336 -11.5806,3.6221 -27.97812,1.9913 -22.78984,23.9024 -18.38857,-13.8625 -31.22207,-10.0693 -42.24461,-0.5201 -9.51018,-12.7034 -17.23287,-28.7492 -43.91219,-9.3527 14.77538,-21.4914 8.92954,-32.2734 -2.77927,-40.0105 21.99721,-20.8048 4.82528,-28.0492 -12.22871,-35.3336 30.83153,-2.5019 22.0691,-25.5657 13.89629,-48.3243 14.43598,4.5714 28.92311,9.4767 36.13025,-33.2551 z"
       id="path4489-0"
       inkscape:connector-curvature="0"
       sodipodi:nodetypes="cccccccccccccc" />
    <path
       style="fill:#ffffff;stroke:none"
       d="m 1370.1348,1388.0197 c -12.3702,5.1568 -77.4376,8.7331 -91.2922,7.7436 -3.3788,0.078 -6.7517,0.2501 -9.9922,0.9929 -5.9299,6.3727 -8.9737,16.8403 -10.2545,27.8285 -2.3845,12.7375 -4.9624,25.3571 -6.8318,38.4277 1.5544,19.0552 13.6626,38.5661 27.0361,43.5634 11.9475,2.7899 76.0777,-4.918 87.9361,2.21 8.4414,4.4567 17.3878,6.8121 25.192,4.1771 11.9309,-2.9058 23.4994,-7.8685 36.3328,-6.7494 15.7777,1.9758 31.9325,11.6875 47.5854,11.9089 10.7601,0.1877 20.5275,-4.1124 29.8979,-8.8876 7.4836,-2.774 35.9336,-1.2857 44.151,0.3632 7.7395,0.4702 14.2611,-5.0813 18.0261,-13.3269 6.1183,-11.3403 23.7064,-26.1694 22.7338,-42.4085 -1.1713,-15.729 -6.3846,-32.6241 -15.4116,-44.8605 -6.4076,-8.892 -14.9782,-13.8849 -22.7904,-14.1274 -10.7603,-1.4218 -55.6566,8.1727 -66.5495,2.4635 -13.621,-6.7962 -27.7777,-10.3283 -40.6858,-7.6631 -13.4606,2.0704 -27.0709,4.4522 -41.3796,1.2904 -9.8027,-1.881 -19.667,-4.2076 -29.3346,-4.6172 -1.4563,0.5571 -2.9126,1.1143 -4.369,1.6714 z"
       id="path3280-1"
       inkscape:connector-curvature="0"
       sodipodi:nodetypes="csssccccccccccccccccc" />
    <path
       style="fill:#ffffff;fill-opacity:1;stroke:none"
       d="m 557.83571,1553.6062 c 14.09786,-4.0904 54.52012,5.312 54.52012,5.312 3.77939,5.5367 -15.97666,34.2518 -14.91147,34.8256 2.16983,0.5361 15.04527,-1.9372 17.26305,0.4954 2.2178,2.4339 -18.41009,39.4339 -15.50635,40.5702 2.90388,1.1373 68.34901,-25.8381 77.82622,-20.5639 9.47731,5.2742 -1.76454,28.0714 1.12332,28.5754 2.88767,0.504 35.94022,-12.505 39.54609,-12.033 3.60559,0.472 1.3003,25.3019 4.90608,25.7738 3.60587,0.472 29.14161,-15.2673 32.02938,-14.7633 2.88785,0.504 1.85135,16.375 5.45714,16.847 3.60587,0.4719 19.04935,-14.142 21.21929,-13.6061 2.16975,0.536 10.86653,31.7973 14.50418,33.5334 3.63782,1.7365 25.68558,-35.9599 27.82356,-36.6883 2.13775,-0.7295 16.88177,42.2893 19.76963,42.7932 2.88786,0.5039 16.47985,-30.4862 18.64979,-29.9502 2.16983,0.5361 16.25853,17.632 19.16228,18.7679 2.90383,1.1363 20.54805,-40.1622 23.41984,-40.2902 2.87197,-0.1283 27.71405,15.8536 29.94785,18.9182 2.23389,3.066 3.89225,-16.6312 6.76403,-16.7595 2.87186,-0.128 36.18571,9.7797 36.8879,9.1153 0.70188,-0.6641 -5.34558,-12.4215 -3.19172,-12.5176 2.15393,-0.097 36.29758,14.2045 37.65378,10.9796 -3.9928,-24.0558 76.7068,2.4388 78.5932,9.7855 0,0 -33.6188,-50.405 -30.1249,-54.3595 3.4938,-3.9533 16.5294,-0.1047 17.1993,-2.0334 0.6699,-1.9285 -8.1533,-9.7635 -6.0635,-12.3883 2.0901,-2.6262 26.245,-13.8316 28.319,-17.0886 2.0739,-3.2581 -11.0572,-10.901 -8.2333,-12.9256 -4.5923,-6.1086 40.8134,-21.7131 45.5181,-19.1232 -2.2342,0.7116 -19.4449,-17.1364 -24.5328,-30.2713 1.8434,-14.2901 8.6233,-0.4186 10.7132,-3.0434 2.0901,-2.6249 -15.1091,-0.5915 -15.1729,-3.1202 -0.064,-2.53 0.2441,-4.5636 25.1707,-28.6809 -13.954,5.4304 -51.7476,10.0569 -51.7476,10.0569 l 8.4757,-21.8857 c 0,0 -31.6286,20.5368 -43.7417,18.5027 -23.8208,-4 -18.9239,-37.7678 -18.9239,-37.7678 0,0 -28.20354,16.677 -31.90514,12.4121 -3.70176,-4.2664 -8.83563,-12.4747 -9.89655,-16.8766 -1.89804,2.7916 -18.93745,18.5685 -22.54313,18.0966 -10.87125,2.2801 -41.21644,-25.5885 -43.09493,-27.1946 -9.4699,10.2061 -19.95274,18.562 -26.2988,19.2168 -3.29668,1.328 -14.23249,-14.3911 -13.97088,-19.9511 -1.57415,4.631 -20.56238,21.9439 -24.9339,19.6277 -3.62188,-1.1055 -12.24639,-12.178 -15.28602,-16.2761 -3.61559,8.233 -13.19311,19.5854 -13.19311,19.5854 0,0 -25.37003,-7.7339 -31.44241,-24.5154 -2.95576,18.395 -17.06156,35.8777 -20.6195,37.3022 -3.55784,1.4246 -56.74486,-34.4243 -54.68687,-38.3134 -0.34138,20.2003 -3.3281,36.9011 -8.08245,37.8514 -4.97767,2.1221 -44.31802,-37.5877 -45.70584,-35.627 -1.38811,1.9605 4.40566,38.1358 0.11383,38.9603 -4.29174,0.8244 -12.32697,-2.8873 -12.32697,-2.8873 l -0.42059,10.4192 c 0,0 -35.71795,-37.9796 -39.40373,-41.6123 -3.6856,-3.6342 11.39883,38.7896 13.68055,43.7522 -13.05113,-4.482 -34.19546,-18.301 -37.14708,-21.335 -2.53017,-3.1105 13.00272,33.5275 11.21253,38.9074 -5.28951,8.0113 -39.52326,1.3877 -39.54914,0.8901 l 30.89672,14.4377 c -10.10641,6.2499 -16.89268,8.2374 -35.55713,13.9183 31.05278,10.0367 52.26118,9.8915 -0.15205,34.2193 z"
       id="path5888-3"
       inkscape:connector-curvature="0"
       sodipodi:nodetypes="cccccsscccccccsccscscsccscccccccscccscsccccccccccccccccsccccccc" />
    <path
       style="color:#000000;display:inline;overflow:visible;visibility:visible;fill:#ffffff;fill-opacity:1;fill-rule:nonzero;stroke:none;stroke-width:1px;marker:none;enable-background:accumulate"
       d="m 1032.7385,2506.0538 c -7.0167,15.6506 -46.59208,16.9629 -61.16088,13.7817 29.36728,17.508 28.3435,28.3861 -11.52901,30.075 66.86699,31.5541 12.22415,26.7792 1.44622,34.7804 52.50307,10.8742 29.01265,24.4075 19.66527,37.8796 60.3469,0.4628 40.5981,22.0581 43.1416,39.2574 5.116,-8.0707 29.4206,-32.6414 30.883,-5.2836 39.9161,-26.1008 87.9938,-42.9607 91.8113,2.7159 16.083,-22.9786 32.1173,-32.6903 30.883,-5.2835 39.8482,-35.6461 75.6572,-22.8152 111.6787,-12.7403 9.4607,-10.7588 10.5632,-27.2874 41.1711,-23.414 -4.2915,-10.6639 6.043,-17.9942 29.3819,-22.3473 -31.0136,-6.4418 -36.7293,-13.0863 20.8559,-20.2368 -43.8191,-0.6917 -84.6806,-2.1087 -33.2713,-26.4941 -16.1285,-0.5901 -54.395,19.7578 -36.5538,-39.7907 -27.7338,19.0635 -57.3233,29.5852 -94.4312,-10.348 -17.5615,19.9499 -48.0213,29.8219 -61.2729,4.9029 -4.7628,10.6234 -24.5122,14.6187 -41.278,15.1032 -6.4833,-4.2198 -13.1701,-9.9514 -20.148,-17.4607 -11.405,15.7675 -28.4656,26.4162 -61.2729,4.9029 z"
       id="path3549-3-7"
       inkscape:connector-curvature="0"
       sodipodi:nodetypes="cccccccccccccccccccc" />
    <path
       style="color:#000000;display:inline;overflow:visible;visibility:visible;fill:#ffffff;fill-opacity:1;fill-rule:nonzero;stroke:none;stroke-width:0.999999px;marker:none;enable-background:accumulate"
       d="m 816.63784,1756.6297 c -53.77145,-23.5695 -66.64315,-43.3978 -72.53669,-59.3997 4.92832,-2.8264 19.90718,-12.2286 19.90718,-12.2286 -16.13101,-13.5035 -22.74289,-67.3125 -10.60035,-69.1694 13.12461,-2.0071 37.10425,-0.6792 37.10425,-0.6792 -15.10667,5.504 -31.61267,72.6481 3.53791,74.6731 -13.86907,7.2537 -15.94917,12.9369 -22.14538,13.688 0.0252,10.0268 26.00335,44.2425 44.73308,53.1158 z"
       id="path4456-3"
       inkscape:connector-curvature="0"
       sodipodi:nodetypes="cccscccc" />
    <path
       style="fill:#ffffff;fill-rule:evenodd;stroke:none;stroke-width:1px;stroke-linecap:butt;stroke-linejoin:miter;stroke-opacity:1"
       d="m 167.70136,2121.0977 c -3.69503,-24.293 -4.22495,-65.7807 10.34503,-85.4357 -12.3556,9.997 -31.21448,52.6878 -29.1892,79.8508 3.16086,42.393 20.17148,17.9256 20.17148,17.9256 z"
       id="path4248-7"
       inkscape:connector-curvature="0"
       sodipodi:nodetypes="ccscc" />
  </g>
  <g
     inkscape:groupmode="layer"
     id="layer1"
     inkscape:label="txt">
    <text
       xml:space="preserve"
       style="font-size:45.33330154px;font-style:normal;font-variant:normal;font-weight:normal;font-stretch:normal;text-align:center;line-height:125%;letter-spacing:0px;word-spacing:0px;text-anchor:middle;fill:#000000;fill-opacity:1;stroke:none;font-family:ComicSpice;-inkscape-font-specification:ComicSpice"
       x="300.20328"
       y="915.61249"
       id="text4246-70-2-2-2-7-4-9-9-6-1-2-3-9-2-7-9-3"
       sodipodi:linespacing="125%"><tspan
         sodipodi:role="line"
         style="font-size:45.33330154px;font-style:normal;font-variant:normal;font-weight:normal;font-stretch:normal;font-family:ComicSpice;-inkscape-font-specification:ComicSpice"
         x="300.20328"
         y="915.61249"
         id="tspan1029">Gừừừ! Nhanh lên</tspan><tspan
         sodipodi:role="line"
         style="font-size:45.33330154px;font-style:normal;font-variant:normal;font-weight:normal;font-stretch:normal;font-family:ComicSpice;-inkscape-font-specification:ComicSpice"
         x="300.20328"
         y="972.27911"
         id="tspan51142">Hạt Tiêu ơi! Phải đi</tspan><tspan
         sodipodi:role="line"
         style="font-size:45.33330154px;font-style:normal;font-variant:normal;font-weight:normal;font-stretch:normal;font-family:ComicSpice;-inkscape-font-specification:ComicSpice"
         x="300.20328"
         y="1028.9458"
         id="tspan51138">tìm câu chuyện buồn.</tspan></text>
    <text
       xml:space="preserve"
       style="font-size:45.33330154px;font-style:normal;font-variant:normal;font-weight:normal;font-stretch:normal;text-align:center;line-height:125%;letter-spacing:0px;word-spacing:0px;text-anchor:middle;fill:#000000;fill-opacity:1;stroke:none;font-family:ComicSpice;-inkscape-font-specification:ComicSpice"
       x="1246.7052"
       y="919.91296"
       id="text4246-70-2-2-2-7-4-9-9-6-1-2-3-9-2-7-9-3-3"
       sodipodi:linespacing="125%"><tspan
         sodipodi:role="line"
         style="font-size:45.33330154px;font-style:normal;font-variant:normal;font-weight:normal;font-stretch:normal;font-family:ComicSpice;-inkscape-font-specification:ComicSpice"
         x="1246.7052"
         y="919.91296"
         id="tspan1033">Tôi có thể</tspan><tspan
         sodipodi:role="line"
         style="font-size:45.33330154px;font-style:normal;font-variant:normal;font-weight:normal;font-stretch:normal;font-family:ComicSpice;-inkscape-font-specification:ComicSpice"
         x="1246.7052"
         y="976.57959"
         id="tspan51132">nghĩ ra cách.</tspan></text>
    <text
       xml:space="preserve"
       style="font-size:52.69589996px;font-style:normal;font-variant:normal;font-weight:bold;font-stretch:normal;text-align:center;line-height:125%;letter-spacing:0px;word-spacing:0px;text-anchor:middle;fill:#000000;fill-opacity:1;stroke:none;font-family:ComicSpice;-inkscape-font-specification:ComicSpice Bold"
       x="1739.8898"
       y="924.21637"
       id="text4246-70-2-2-2-7-4-9-9-6-1-2-3-9-2-7-9-3-3-7"
       sodipodi:linespacing="125%"><tspan
         sodipodi:role="line"
         style="font-size:52.69589996px;font-style:normal;font-variant:normal;font-weight:bold;font-stretch:normal;font-family:ComicSpice;-inkscape-font-specification:ComicSpice Bold"
         x="1739.8898"
         y="924.21637"
         id="tspan1037">Nhất định.</tspan></text>
    <text
       xml:space="preserve"
       style="font-size:45.33330154px;font-style:normal;font-variant:normal;font-weight:normal;font-stretch:normal;text-align:center;line-height:125%;letter-spacing:0px;word-spacing:0px;text-anchor:middle;fill:#000000;fill-opacity:1;stroke:none;font-family:ComicSpice;-inkscape-font-specification:ComicSpice"
       x="2001.5763"
       y="914.20508"
       id="text4246-70-2-2-2-7-4-9-9-6-1-2-3-9-2-7-9-3-5"
       sodipodi:linespacing="125%"><tspan
         sodipodi:role="line"
         style="font-size:45.33330154px;font-style:normal;font-variant:normal;font-weight:normal;font-stretch:normal;font-family:ComicSpice;-inkscape-font-specification:ComicSpice"
         x="2001.5763"
         y="914.20508"
         id="tspan2829-1">Không...</tspan></text>
    <text
       xml:space="preserve"
       style="font-size:36.07400131px;font-style:normal;font-variant:normal;font-weight:normal;font-stretch:normal;text-align:center;line-height:125%;letter-spacing:0px;word-spacing:0px;text-anchor:middle;fill:#000000;fill-opacity:1;stroke:none;font-family:ComicSpice;-inkscape-font-specification:ComicSpice"
       x="2210.7493"
       y="943.36493"
       id="text4246-70-2-2-2-7-4-9-9-6-1-2-3-9-2-7-9-3-5-2"
       transform="scale(0.97209399,1.0287071)"
       sodipodi:linespacing="125%"><tspan
         sodipodi:role="line"
         style="font-size:36.07400131px;font-style:normal;font-variant:normal;font-weight:normal;font-stretch:normal;font-family:ComicSpice;-inkscape-font-specification:ComicSpice"
         x="2210.7493"
         y="943.36493"
         id="tspan2829-1-7">Không thể.</tspan></text>
    <text
       xml:space="preserve"
       style="font-size:14.54100037px;font-style:normal;font-variant:normal;font-weight:normal;font-stretch:normal;text-align:center;line-height:0%;letter-spacing:0px;word-spacing:0px;text-anchor:middle;fill:#000000;fill-opacity:1;stroke:#000000;stroke-width:2.01520991;stroke-miterlimit:4;stroke-opacity:1;stroke-dasharray:none;display:inline;font-family:ComicSpice;-inkscape-font-specification:ComicSpice"
       x="564.22491"
       y="1426.739"
       id="text4246-3-7-9-5-1-6-2-3"
       transform="matrix(0.96995835,0,-0.17070021,1.0309721,0,0)"
       sodipodi:linespacing="0%"><tspan
         sodipodi:role="line"
         style="font-size:54.52840042px;font-style:normal;font-variant:normal;font-weight:normal;font-stretch:normal;line-height:1.25;stroke:#000000;stroke-width:2.01520991;stroke-miterlimit:4;stroke-opacity:1;stroke-dasharray:none;font-family:ComicSpice;-inkscape-font-specification:ComicSpice"
         x="564.22491"
         y="1426.739"
         id="tspan22576">Ề! Ồ!</tspan><tspan
         sodipodi:role="line"
         style="font-size:54.52840042px;font-style:normal;font-variant:normal;font-weight:normal;font-stretch:normal;line-height:1.25;stroke:#000000;stroke-width:2.01520991;stroke-miterlimit:4;stroke-opacity:1;stroke-dasharray:none;font-family:ComicSpice;-inkscape-font-specification:ComicSpice"
         x="564.22491"
         y="1494.8995"
         id="tspan22580">Đi chỗ khác!</tspan></text>
    <text
       xml:space="preserve"
       style="font-style:normal;font-variant:normal;font-weight:normal;font-stretch:normal;font-size:6.87974999999999959px;line-height:0%;font-family:ComicSpice;-inkscape-font-specification:ComicSpice;text-align:center;letter-spacing:0px;word-spacing:0px;text-anchor:middle;fill:#000000;fill-opacity:1;stroke:none;stroke-width:0.87182000000000004"
       x="-341.33691"
       y="2062.9126"
       id="text4246-4-9-8-0-3"
       transform="matrix(0.86354336,-0.84725955,0.23030923,0.93205314,0,0)"><tspan
         sodipodi:role="line"
         style="font-size:80.86119999999999663px;line-height:1.25000000000000000;stroke-width:0.87182000000000004;-inkscape-font-specification:ComicSpice;font-family:ComicSpice;font-weight:normal;font-style:normal;font-stretch:normal;font-variant:normal"
         x="-341.33691"
         y="2062.9126"
         id="tspan4205-3-3"><tspan
           style="font-size:69.63070000000000448px;stroke-width:0.87182000000000004;-inkscape-font-specification:ComicSpice;font-family:ComicSpice;font-weight:normal;font-style:normal;font-stretch:normal;font-variant:normal"
           id="tspan4438">!!</tspan></tspan></text>
    <text
       xml:space="preserve"
       style="font-size:13.64550018px;font-style:normal;font-variant:normal;font-weight:normal;font-stretch:normal;text-align:center;line-height:0%;letter-spacing:0px;word-spacing:0px;text-anchor:middle;fill:#000000;fill-opacity:1;stroke:#000000;stroke-width:2.01520991;stroke-miterlimit:4;stroke-opacity:1;stroke-dasharray:none;display:inline;font-family:ComicSpice;-inkscape-font-specification:ComicSpice"
       x="1145.1444"
       y="1500.8104"
       id="text4246-3-7-9-5-1-6-2-3-8"
       transform="matrix(0.97850393,0,-0.17220413,1.0219683,0,0)"
       sodipodi:linespacing="0%"><tspan
         sodipodi:role="line"
         style="font-size:51.16999817px;font-style:normal;font-variant:normal;font-weight:normal;font-stretch:normal;line-height:1.25;stroke:#000000;stroke-width:2.01520991;stroke-miterlimit:4;stroke-opacity:1;stroke-dasharray:none;font-family:ComicSpice;-inkscape-font-specification:ComicSpice"
         x="1145.1444"
         y="1500.8104"
         id="tspan1362">Nếu bạn không thể trả tiền,</tspan><tspan
         sodipodi:role="line"
         style="font-size:51.16999817px;font-style:normal;font-variant:normal;font-weight:normal;font-stretch:normal;line-height:1.25;stroke:#000000;stroke-width:2.01520991;stroke-miterlimit:4;stroke-opacity:1;stroke-dasharray:none;font-family:ComicSpice;-inkscape-font-specification:ComicSpice"
         x="1145.1444"
         y="1564.7729"
         id="tspan51156">đừng đụng hàng!</tspan></text>
    <text
       xml:space="preserve"
       style="font-size:51.15999999999999659px;font-style:normal;font-variant:normal;font-weight:normal;font-stretch:normal;text-align:center;line-height:125%;letter-spacing:0px;word-spacing:0px;text-anchor:middle;fill:#000000;fill-opacity:1;stroke:#000000;font-family:ComicSpice;-inkscape-font-specification:ComicSpice;stroke-width:2.02;stroke-miterlimit:4;stroke-dasharray:none;stroke-opacity:1"
       x="1430.9071"
       y="1464.3622"
       id="text4246-70-2-2-2-7-4-9-9-6-1-2-3-9-2-7-9-3-3-5-6"
       sodipodi:linespacing="125%"><tspan
         sodipodi:role="line"
         style="font-size:51.15999999999999659px;font-style:normal;font-variant:normal;font-weight:normal;font-stretch:normal;font-family:ComicSpice;-inkscape-font-specification:ComicSpice;stroke-width:2.02;stroke-miterlimit:4;stroke-dasharray:none;stroke:#000000;stroke-opacity:1"
         x="1430.9071"
         y="1464.3622"
         id="tspan51158">Xin lỗi chủ ơi!!!</tspan></text>
    <text
       xml:space="preserve"
       style="font-size:15.32460022px;font-style:normal;font-variant:normal;font-weight:normal;font-stretch:normal;text-align:center;line-height:0%;letter-spacing:2px;word-spacing:0px;text-anchor:middle;fill:#000000;fill-opacity:1;stroke:#000000;stroke-width:2.01520991;stroke-miterlimit:4;stroke-opacity:1;stroke-dasharray:none;display:inline;font-family:ComicSpice;-inkscape-font-specification:ComicSpice"
       x="2107.2039"
       y="1398.4261"
       id="text4246-3-7-9-5-1-6-2"
       transform="matrix(0.92840736,0,-0.16338778,1.0771134,0,0)"
       sodipodi:linespacing="0%"><tspan
         sodipodi:role="line"
         style="font-size:57.46709824px;font-style:normal;font-variant:normal;font-weight:normal;font-stretch:normal;line-height:1.25;stroke:#000000;stroke-width:2.01520991;stroke-miterlimit:4;stroke-opacity:1;stroke-dasharray:none;font-family:ComicSpice;-inkscape-font-specification:ComicSpice"
         x="2108.2039"
         y="1398.4261"
         id="tspan1222">CỦ ĐỎ!</tspan></text>
    <text
       xml:space="preserve"
       style="font-size:45.33330154px;font-style:normal;font-variant:normal;font-weight:normal;font-stretch:normal;text-align:center;line-height:125%;letter-spacing:0px;word-spacing:0px;text-anchor:middle;fill:#000000;fill-opacity:1;stroke:none;font-family:ComicSpice;-inkscape-font-specification:ComicSpice"
       x="1722.5636"
       y="1622.7692"
       id="text4246-70-2-2-2-7-4-9-9-6-1-2-3-9-2-7-9-3-3-5"
       sodipodi:linespacing="125%"><tspan
         sodipodi:role="line"
         style="font-size:45.33330154px;font-style:normal;font-variant:normal;font-weight:normal;font-stretch:normal;font-family:ComicSpice;-inkscape-font-specification:ComicSpice"
         x="1722.5636"
         y="1622.7692"
         id="tspan51169">Sao con không giúp</tspan><tspan
         sodipodi:role="line"
         style="font-size:45.33330154px;font-style:normal;font-variant:normal;font-weight:normal;font-stretch:normal;font-family:ComicSpice;-inkscape-font-specification:ComicSpice"
         x="1726.9021"
         y="1679.4358"
         id="tspan4975">suy nghĩ cách thay thế </tspan><tspan
         sodipodi:role="line"
         style="font-size:45.33330154px;font-style:normal;font-variant:normal;font-weight:normal;font-stretch:normal;font-family:ComicSpice;-inkscape-font-specification:ComicSpice"
         x="1722.5636"
         y="1736.1024"
         id="tspan51173">nghĩ đến kiếm ăn nữa!</tspan></text>
    <text
       xml:space="preserve"
       style="font-size:15.32460022px;font-style:normal;font-variant:normal;font-weight:normal;font-stretch:normal;text-align:center;line-height:0%;letter-spacing:0px;word-spacing:0px;text-anchor:middle;fill:#000000;fill-opacity:1;stroke:#000000;stroke-width:2.01520991;stroke-miterlimit:4;stroke-opacity:1;stroke-dasharray:none;display:inline;font-family:ComicSpice;-inkscape-font-specification:ComicSpice"
       x="687.12646"
       y="2438.4612"
       id="text4246-3-7-9-5-1-6-2-9"
       transform="matrix(0.92840736,0,-0.16338778,1.0771134,0,0)"
       sodipodi:linespacing="0%"><tspan
         sodipodi:role="line"
         style="font-size:57.46709824px;font-style:normal;font-variant:normal;font-weight:normal;font-stretch:normal;line-height:1.25;stroke:#000000;stroke-width:2.01520991;stroke-miterlimit:4;stroke-opacity:1;stroke-dasharray:none;font-family:ComicSpice;-inkscape-font-specification:ComicSpice"
         x="687.12646"
         y="2438.4612"
         id="tspan1222-1">Ồ?!</tspan></text>
    <text
       xml:space="preserve"
       style="font-size:55.87369919px;font-style:normal;font-variant:normal;font-weight:bold;font-stretch:normal;text-align:center;line-height:125%;letter-spacing:0px;word-spacing:0px;text-anchor:middle;fill:#000000;fill-opacity:1;stroke:none;font-family:ComicSpice;-inkscape-font-specification:ComicSpice Bold"
       x="1152.1935"
       y="2595.791"
       id="text4246-70-2-2-2-7-4-9-9-6-1-2-3-9-2-7-9-3-3-2-2"
       sodipodi:linespacing="125%"><tspan
         sodipodi:role="line"
         style="font-size:55.87369919px;font-style:normal;font-variant:normal;font-weight:bold;font-stretch:normal;font-family:ComicSpice;-inkscape-font-specification:ComicSpice Bold"
         x="1152.1935"
         y="2595.791"
         id="tspan17035-3">Ồ, đúng rồi...</tspan></text>
    <text
       xml:space="preserve"
       style="font-size:45.33330154px;font-style:normal;font-variant:normal;font-weight:normal;font-stretch:normal;text-align:center;line-height:125%;letter-spacing:0px;word-spacing:0px;text-anchor:middle;fill:#000000;fill-opacity:1;stroke:none;font-family:ComicSpice;-inkscape-font-specification:ComicSpice"
       x="1181.6333"
       y="2690.5107"
       id="text4246-70-2-2-2-7-4-9-9-6-1-2-3-9-2-7-9-3-3-2"
       sodipodi:linespacing="125%"><tspan
         sodipodi:role="line"
         style="font-size:45.33330154px;font-style:normal;font-variant:normal;font-weight:normal;font-stretch:normal;font-family:ComicSpice;-inkscape-font-specification:ComicSpice"
         x="1181.6333"
         y="2690.5107"
         id="tspan1834">Cái này có thể</tspan><tspan
         sodipodi:role="line"
         style="font-size:45.33330154px;font-style:normal;font-variant:normal;font-weight:normal;font-stretch:normal;font-family:ComicSpice;-inkscape-font-specification:ComicSpice"
         x="1181.6333"
         y="2747.1775"
         id="tspan51126">thành công.</tspan></text>
  </g>
</svg>
