<?xml version="1.0" encoding="UTF-8" standalone="no"?>
<!-- Created with Inkscape (http://www.inkscape.org/) -->

<svg
   xmlns:dc="http://purl.org/dc/elements/1.1/"
   xmlns:cc="http://creativecommons.org/ns#"
   xmlns:rdf="http://www.w3.org/1999/02/22-rdf-syntax-ns#"
   xmlns:svg="http://www.w3.org/2000/svg"
   xmlns="http://www.w3.org/2000/svg"
   xmlns:xlink="http://www.w3.org/1999/xlink"
   xmlns:sodipodi="http://sodipodi.sourceforge.net/DTD/sodipodi-0.dtd"
   xmlns:inkscape="http://www.inkscape.org/namespaces/inkscape"
   id="svg2"
   version="1.1"
   inkscape:version="0.48.5 r10040"
   width="2481"
   height="3503"
   sodipodi:docname="E37P01.svg"
   inkscape:export-filename="/Users/su_huynh/Downloads/lang 37/vi/E37P01.png"
   inkscape:export-xdpi="45"
   inkscape:export-ydpi="45">
  <metadata
     id="metadata8">
    <rdf:RDF>
      <cc:Work
         rdf:about="">
        <dc:format>image/svg+xml</dc:format>
        <dc:type
           rdf:resource="http://purl.org/dc/dcmitype/StillImage" />
        <dc:title></dc:title>
      </cc:Work>
    </rdf:RDF>
  </metadata>
  <defs
     id="defs6" />
  <sodipodi:namedview
     pagecolor="#ffffff"
     bordercolor="#666666"
     borderopacity="1"
     objecttolerance="10"
     gridtolerance="10"
     guidetolerance="10"
     inkscape:pageopacity="0"
     inkscape:pageshadow="2"
     inkscape:window-width="1276"
     inkscape:window-height="724"
     id="namedview4"
     showgrid="false"
     inkscape:zoom="0.819112"
     inkscape:cx="2361.452"
     inkscape:cy="792.46943"
     inkscape:window-x="183"
     inkscape:window-y="0"
     inkscape:window-maximized="0"
     inkscape:current-layer="layer1"
     inkscape:pagecheckerboard="0"
     inkscape:showpageshadow="0"
     inkscape:deskcolor="#d1d1d1"
     showguides="true"
     inkscape:guide-bbox="true" />
  <g
     inkscape:groupmode="layer"
     id="layer2"
     inkscape:label="artwork"
     sodipodi:insensitive="true">
    <image
       sodipodi:absref="/Users/su_huynh/Downloads/lang 37/vi/../gfx_Pepper-and-Carrot_by-David-Revoy_E37P01.png"
       xlink:href="../gfx_Pepper-and-Carrot_by-David-Revoy_E37P01.png"
       width="2481"
       height="3503"
       id="image10"
       x="0"
       y="0" />
  </g>
  <g
     inkscape:groupmode="layer"
     id="layer3"
     inkscape:label="speechbubbles">
    <path
       style="color:#000000;display:inline;overflow:visible;visibility:visible;fill:#ffffff;fill-opacity:1;fill-rule:nonzero;stroke:none;stroke-width:0.999998px;marker:none;enable-background:accumulate"
       d="m 1957.6629,2315.1087 c 15.8896,4.7552 27.218,-10.2594 36.5884,-10.1737 9.3705,0.085 20.4858,-1.4767 31.5776,-11.7728 11.8207,-15.5362 46.6253,-47.4088 4.9039,-39.2982 -15.2177,1.3778 -15.6011,25.3088 -21.9093,33.4823 -6.3081,8.1734 -14.6485,3.6312 -21.2243,9.0949 -6.5758,5.4636 -12.6894,16.2295 -29.9363,18.6675 z"
       id="path4538-0"
       inkscape:connector-curvature="0"
       sodipodi:nodetypes="ccccccc" />
    <path
       style="color:#000000;display:inline;overflow:visible;visibility:visible;fill:#ffffff;fill-opacity:1;fill-rule:nonzero;stroke:none;stroke-width:1px;marker:none;enable-background:accumulate"
       d="m 2249.24,3145.8561 c 34.555,29.8645 38.7386,62.8188 5.9526,98.2544 -21.168,42.3886 0.4462,38.3212 0.4462,38.3212 l 34.145,-19.6238 c 0,0 46.2012,-75.3554 -40.5438,-116.9518 z"
       id="path3072-56-6"
       inkscape:connector-curvature="0"
       sodipodi:nodetypes="ccccc" />
    <path
       style="color:#000000;display:inline;overflow:visible;visibility:visible;fill:#ffffff;fill-opacity:1;fill-rule:nonzero;stroke:none;stroke-width:1.24776px;marker:none;enable-background:accumulate"
       d="m 847.1762,2234.3704 c -28.32832,0.667 -57.2014,0.5678 -84.02305,10.1173 -15.74509,5.5745 -30.61223,16.2146 -39.27852,33.3187 -10.13387,19.5988 -9.81916,46.2069 -2.25385,68.9801 3.54761,10.567 8.4571,20.6616 14.64869,29.4264 6.72464,9.3324 15.55183,16.4797 25.14208,19.6119 27.79854,11.5633 56.71591,14.3241 85.08587,15.485 29.6679,0.8973 59.20878,-0.3057 88.51254,-3.0891 24.70663,-2.7804 49.52503,-7.7974 71.48064,-20.6774 13.2568,-8.1013 25.4772,-20.3565 30.8022,-37.8994 7.4314,-24.2539 2.6051,-55.3961 -13.4195,-75.8136 -12.8078,-15.6635 -30.16391,-23.2508 -46.88491,-27.8613 -27.6138,-7.4778 -55.5152,-8.8065 -83.22699,-10.5704 -15.55285,-0.8334 -31.12316,-1.5798 -46.5852,-1.0282 z"
       id="path4546-6-21-1"
       inkscape:connector-curvature="0"
       sodipodi:nodetypes="cssssc" />
    <path
       style="color:#000000;display:inline;overflow:visible;visibility:visible;fill:#ffffff;fill-opacity:1;fill-rule:nonzero;stroke:none;stroke-width:1.24776px;marker:none;enable-background:accumulate"
       d="m 849.18072,2151.1293 c -18.14856,0.3855 -36.60784,0.3282 -54.22804,5.8465 -10.34202,3.2213 -20.37079,9.3697 -26.75086,19.2536 -7.4408,11.3254 -8.54323,26.7013 -4.82103,39.861 1.75096,6.1063 4.39595,11.9396 7.92602,17.0045 3.84313,5.3928 9.13788,9.5229 15.11734,11.3329 17.21046,6.682 35.56772,8.2774 53.65329,8.9483 18.9285,0.5184 37.87868,-0.1767 56.75468,-1.7852 15.93601,-1.6067 32.05304,-4.5058 46.7246,-11.9486 8.8747,-4.6815 17.29002,-11.7632 21.55478,-21.9007 5.94067,-14.0154 4.38006,-32.0113 -4.86713,-43.8099 -7.42318,-9.0513 -18.15062,-13.4357 -28.61755,-16.0999 -17.29268,-4.3212 -35.07036,-5.089 -52.70551,-6.1083 -9.90514,-0.4816 -19.8257,-0.9129 -29.74059,-0.5942 z"
       id="path4546-6-21-1-7"
       inkscape:connector-curvature="0"
       sodipodi:nodetypes="cssssc" />
    <path
       style="color:#000000;display:inline;overflow:visible;visibility:visible;fill:#ffffff;fill-opacity:1;fill-rule:nonzero;stroke:none;stroke-width:0.999999px;marker:none;enable-background:accumulate"
       d="m 1112.0298,2244.6942 c -36.4729,-14.2248 -66.2411,-6.7142 -86.7414,26.8513 -30.09489,27.8109 -33.25183,11.7546 -33.25183,11.7546 l 6.41738,-29.5186 c 0,0 50.85485,-55.2993 113.57585,-9.0873 z"
       id="path3072-56"
       inkscape:connector-curvature="0"
       sodipodi:nodetypes="ccccc" />
    <path
       style="fill:#ffffff;stroke:none;stroke-width:1.0606"
       d="m 2095.1348,2130.2227 c -28.5882,0.7098 -58.3476,3.8196 -83.7119,18.0493 -31.6251,20.1271 -43.1176,65.6376 -25.0238,98.4221 7.9054,14.9187 21.7142,26.1644 37.518,31.8566 19.2472,7.3377 39.9471,9.1734 60.1181,12.5354 52.7012,7.0828 106.9959,5.6916 158.5744,-7.8795 15.0609,-3.8228 31.1055,-11.3204 37.6874,-26.3501 7.8624,-18.7115 7.5035,-39.9925 2.9254,-59.4746 -4.8779,-19.0215 -14.9913,-37.3975 -30.8669,-49.3502 -18.0344,-11.7846 -40.2444,-12.6888 -61.0005,-15.0401 -31.9837,-2.9007 -64.1356,-2.8165 -96.2202,-2.7689 z"
       id="path3280-10"
       inkscape:connector-curvature="0"
       sodipodi:nodetypes="csssc" />
    <path
       style="color:#000000;fill:#ffffff;fill-opacity:1;fill-rule:nonzero;stroke:none;stroke-width:1.24776006px;marker:none;visibility:visible;display:inline;overflow:visible;enable-background:accumulate"
       d="m 2031.4973,2534.5365 c -47.264,15.2548 -77.7264,61.9877 -79.7572,106.3934 -1.6531,36.1465 9.1694,76.1121 41.2204,91.3436 33.1093,15.7345 55.2949,13.4571 88.7123,17.5438 83.413,10.2007 173.8932,4.1813 231.0476,-8.8659 64.1191,-14.6371 52.5973,-78.8519 25.546,-135.3163 -8.1162,-16.941 -18.9214,-33.2379 -34.3234,-44.4946 -18.7914,-13.7337 -35.5246,-20.5836 -58.1173,-24.8842 -37.9091,-7.2161 -76.5092,-9.5997 -124.3951,-10.4773 -47.886,-0.8775 -60.8521,-0.6288 -89.9333,8.7575 z"
       id="path4546-6-21-1-2"
       inkscape:connector-curvature="0"
       sodipodi:nodetypes="ssssssssss" />
    <path
       style="color:#000000;display:inline;overflow:visible;visibility:visible;fill:#ffffff;fill-opacity:1;fill-rule:nonzero;stroke:none;stroke-width:0.999994px;marker:none;enable-background:accumulate"
       d="m 2072.4015,2461.8063 c 23.2757,17.8081 28.2898,43.1252 10.979,76.5719 -9.716,36.9964 3.1402,30.1775 3.1402,30.1775 l 19.3218,-21.1913 c 0,0 22.491,-67.2 -33.441,-85.5581 z"
       id="path3072-56-7"
       inkscape:connector-curvature="0"
       sodipodi:nodetypes="ccccc" />
    <path
       style="color:#000000;display:inline;overflow:visible;visibility:visible;fill:#ffffff;fill-opacity:1;fill-rule:nonzero;stroke:none;stroke-width:0.911218px;marker:none;enable-background:accumulate"
       d="m 2193.2252,3221.6447 c -32.6073,0.8969 -65.7947,5.9031 -94.8783,19.6335 -21.4325,9.6608 -37.1762,27.9981 -43.4943,48.4978 -8.0576,23.0221 -9.4623,48.6774 0.7013,71.3727 8.4561,18.7117 26.3021,33.1483 46.708,41.3679 27.4425,11.6076 57.3789,17.6647 87.3016,21.5819 44.2003,5.3987 89.2595,5.3301 133.43,-0.256 24.998,-3.6883 50.2154,-10.9734 69.8203,-25.7609 21.2218,-16.0986 32.5838,-41.5616 30.2668,-66.2288 -1.6844,-28.3039 -15.5829,-56.3979 -39.8694,-75.0584 -19.5808,-15.4701 -44.8371,-24.1007 -70.3868,-28.0085 -39.3708,-6.7074 -79.6577,-7.0468 -119.5992,-7.1412 z"
       id="path4040-40"
       inkscape:connector-curvature="0"
       sodipodi:nodetypes="zssssz" />
    <path
       style="display:inline;color:#000000;fill:#ffffff;stroke:none;stroke-width:3;marker:none;visibility:visible;overflow:visible;enable-background:accumulate"
       d="m 1639.3518,2823.8111 c -11.365,-13.2899 -37.1065,-11.2674 -40.4279,6.0641 -9.9801,-14.9576 -31.6115,-8.7469 -37.5711,2.8875 -29.4569,2.7091 -27.5693,24.4291 -21.0493,32.487 -22.1088,30.1862 -3.9038,61.6484 17.1818,46.4921 2.9591,16.2104 35.9181,19.7831 43.4601,6.0642 4.9826,23.5299 48.5474,18.5221 58.6204,-2.0215 13.3599,17.6455 47.0327,31.5668 60.6418,-3.0321 18.2486,19.2964 50.1753,-1.4329 52.5564,-23.246 19.6757,3.0968 19.4112,-35.9757 1.0107,-38.4065 7.6841,-36.3049 -46.4024,-52.6012 -65.6954,-27.2888 -21.8278,-22.1465 -48.1341,-12.356 -68.7275,0 z"
       id="path48043"
       inkscape:connector-curvature="0"
       sodipodi:nodetypes="cccccccccccc" />
    <path
       sodipodi:type="arc"
       style="opacity:0.98999999;color:#000000;fill:#ffffff;fill-opacity:1;fill-rule:nonzero;stroke:none;stroke-width:3;marker:none;visibility:visible;display:inline;overflow:visible;enable-background:accumulate"
       id="path48059"
       sodipodi:cx="1681.2958"
       sodipodi:cy="2982.9961"
       sodipodi:rx="27.794189"
       sodipodi:ry="27.794189"
       d="m 1709.09,2982.9961 a 27.794189,27.794189 0 1 1 -55.5884,0 27.794189,27.794189 0 1 1 55.5884,0 z"
       transform="matrix(0.49090908,0,0,0.49090908,864.018,1522.659)" />
    <path
       transform="matrix(0.36363635,0,0,0.36363635,1109.838,1925.0537)"
       d="m 1709.09,2982.9961 a 27.794189,27.794189 0 1 1 -55.5884,0 27.794189,27.794189 0 1 1 55.5884,0 z"
       sodipodi:ry="27.794189"
       sodipodi:rx="27.794189"
       sodipodi:cy="2982.9961"
       sodipodi:cx="1681.2958"
       id="path48061"
       style="opacity:0.98999999;color:#000000;fill:#ffffff;fill-opacity:1;fill-rule:nonzero;stroke:none;stroke-width:3;marker:none;visibility:visible;display:inline;overflow:visible;enable-background:accumulate"
       sodipodi:type="arc" />
    <path
       transform="matrix(0.65454545,0,0,0.65454545,565.14547,998.6526)"
       d="m 1709.09,2982.9961 a 27.794189,27.794189 0 1 1 -55.5884,0 27.794189,27.794189 0 1 1 55.5884,0 z"
       sodipodi:ry="27.794189"
       sodipodi:rx="27.794189"
       sodipodi:cy="2982.9961"
       sodipodi:cx="1681.2958"
       id="path48063"
       style="opacity:0.98999999;color:#000000;fill:#ffffff;fill-opacity:1;fill-rule:nonzero;stroke:none;stroke-width:3;marker:none;visibility:visible;display:inline;overflow:visible;enable-background:accumulate"
       sodipodi:type="arc" />
  </g>
  <g
     inkscape:groupmode="layer"
     id="layer1"
     inkscape:label="txt"
     style="display:inline">
    <text
       xml:space="preserve"
       style="font-size:45.33330154px;font-style:normal;font-variant:normal;font-weight:normal;font-stretch:normal;text-align:center;line-height:125%;letter-spacing:0px;word-spacing:0px;text-anchor:middle;fill:#000000;fill-opacity:1;stroke:none;font-family:ComicSpice;-inkscape-font-specification:ComicSpice"
       x="870.99451"
       y="2214.8057"
       id="text4246-70-2-2-2-7-4-9-9-6-1-2-3-9"
       sodipodi:linespacing="125%"><tspan
         sodipodi:role="line"
         style="font-size:45.33330154px;font-style:normal;font-variant:normal;font-weight:normal;font-stretch:normal;font-family:ComicSpice;-inkscape-font-specification:ComicSpice"
         x="870.99451"
         y="2214.8057"
         id="tspan2979">May qúa!...</tspan></text>
    <text
       xml:space="preserve"
       style="font-size:45.33330154px;font-style:normal;font-variant:normal;font-weight:normal;font-stretch:normal;text-align:center;line-height:125%;letter-spacing:0px;word-spacing:0px;text-anchor:middle;fill:#000000;fill-opacity:1;stroke:none;font-family:ComicSpice;-inkscape-font-specification:ComicSpice"
       x="874.24341"
       y="2307.0212"
       id="text4246-70-2-2-2-7-4-9-9-6-1-2-3-9-3"
       sodipodi:linespacing="125%"><tspan
         sodipodi:role="line"
         style="font-size:45.33330154px;font-style:normal;font-variant:normal;font-weight:normal;font-stretch:normal;font-family:ComicSpice;-inkscape-font-specification:ComicSpice"
         x="874.24341"
         y="2307.0212"
         id="tspan982">Tôi vui lắm</tspan><tspan
         sodipodi:role="line"
         style="font-size:45.33330154px;font-style:normal;font-variant:normal;font-weight:normal;font-stretch:normal;font-family:ComicSpice;-inkscape-font-specification:ComicSpice"
         x="874.24341"
         y="2363.688"
         id="tspan47792">đã tới đây!!</tspan></text>
    <text
       xml:space="preserve"
       style="font-size:45.33330154px;font-style:normal;font-variant:normal;font-weight:normal;font-stretch:normal;text-align:center;line-height:125%;letter-spacing:0px;word-spacing:0px;text-anchor:middle;fill:#000000;fill-opacity:1;stroke:none;font-family:ComicSpice;-inkscape-font-specification:ComicSpice"
       x="2135.9358"
       y="2199.3025"
       id="text4246-70-2-2-2-7-4-9-9-6-1-2-3-9-3-5"
       sodipodi:linespacing="125%"><tspan
         sodipodi:role="line"
         style="font-size:45.33330154px;font-style:normal;font-variant:normal;font-weight:normal;font-stretch:normal;font-family:ComicSpice;-inkscape-font-specification:ComicSpice"
         x="2135.9358"
         y="2199.3025"
         id="tspan1026">Ồ, bửa nay bán</tspan><tspan
         sodipodi:role="line"
         style="font-size:45.33330154px;font-style:normal;font-variant:normal;font-weight:normal;font-stretch:normal;font-family:ComicSpice;-inkscape-font-specification:ComicSpice"
         x="2135.9358"
         y="2255.9692"
         id="tspan47796">khuyến mãi.</tspan></text>
    <text
       xml:space="preserve"
       style="font-size:45.33330154px;font-style:normal;font-variant:normal;font-weight:normal;font-stretch:normal;text-align:center;line-height:125%;letter-spacing:0px;word-spacing:0px;text-anchor:middle;fill:#000000;fill-opacity:1;stroke:none;font-family:ComicSpice;-inkscape-font-specification:ComicSpice"
       x="2146.6697"
       y="2594.6836"
       id="text4246-70-2-2-2-7-4-9-9-6-1-2-3-9-3-5-2"
       sodipodi:linespacing="125%"><tspan
         sodipodi:role="line"
         style="font-size:45.33330154px;font-style:normal;font-variant:normal;font-weight:normal;font-stretch:normal;font-family:ComicSpice;-inkscape-font-specification:ComicSpice"
         x="2146.6697"
         y="2594.6836"
         id="tspan1196">Chúng tôi thử</tspan><tspan
         sodipodi:role="line"
         style="font-size:45.33330154px;font-style:normal;font-variant:normal;font-weight:normal;font-stretch:normal;font-family:ComicSpice;-inkscape-font-specification:ComicSpice"
         x="2146.6697"
         y="2651.3503"
         id="tspan48071">kiếm gì ăn trước</tspan><tspan
         sodipodi:role="line"
         style="font-size:45.33330154px;font-style:normal;font-variant:normal;font-weight:normal;font-stretch:normal;font-family:ComicSpice;-inkscape-font-specification:ComicSpice"
         x="2146.6697"
         y="2708.0168"
         id="tspan48067">leo lên núi lửa nhe.</tspan></text>
    <text
       xml:space="preserve"
       style="font-size:45.33330154px;font-style:normal;font-variant:normal;font-weight:normal;font-stretch:normal;text-align:center;line-height:125%;letter-spacing:0px;word-spacing:0px;text-anchor:middle;fill:#000000;fill-opacity:1;stroke:none;font-family:ComicSpice;-inkscape-font-specification:ComicSpice"
       x="2232.5703"
       y="3300.489"
       id="text4246-70-2-2-2-7-4-9-9-6-1-2-3-9-3-5-2-0"
       sodipodi:linespacing="125%"><tspan
         sodipodi:role="line"
         style="font-size:45.33330154px;font-style:normal;font-variant:normal;font-weight:normal;font-stretch:normal;font-family:ComicSpice;-inkscape-font-specification:ComicSpice"
         x="2236.9089"
         y="3300.489"
         id="tspan1238">Mình chắc </tspan><tspan
         sodipodi:role="line"
         style="font-size:45.33330154px;font-style:normal;font-variant:normal;font-weight:normal;font-stretch:normal;font-family:ComicSpice;-inkscape-font-specification:ComicSpice"
         x="2232.5703"
         y="3357.1558"
         id="tspan48076">con khuái ý này.</tspan></text>
    <text
       id="text48045"
       y="2881.0493"
       x="1660.5154"
       style="font-size:45.33330154px;font-style:normal;font-variant:normal;font-weight:normal;font-stretch:normal;text-align:center;line-height:125%;letter-spacing:0px;word-spacing:0px;text-anchor:middle;fill:#000000;fill-opacity:1;stroke:none;font-family:ComicSpice;-inkscape-font-specification:ComicSpice"
       xml:space="preserve"
       sodipodi:linespacing="125%"><tspan
         id="tspan48051"
         y="2881.0493"
         x="1660.5154"
         style="font-size:45.33330154px;font-style:normal;font-variant:normal;font-weight:normal;font-stretch:normal;font-family:ComicSpice;-inkscape-font-specification:ComicSpice"
         sodipodi:role="line">Con đói qúa!</tspan></text>
  </g>
</svg>
