<?xml version="1.0" encoding="UTF-8" standalone="no"?>
<!-- Created with Inkscape (http://www.inkscape.org/) -->

<svg
   xmlns:dc="http://purl.org/dc/elements/1.1/"
   xmlns:cc="http://creativecommons.org/ns#"
   xmlns:rdf="http://www.w3.org/1999/02/22-rdf-syntax-ns#"
   xmlns:svg="http://www.w3.org/2000/svg"
   xmlns="http://www.w3.org/2000/svg"
   xmlns:xlink="http://www.w3.org/1999/xlink"
   xmlns:sodipodi="http://sodipodi.sourceforge.net/DTD/sodipodi-0.dtd"
   xmlns:inkscape="http://www.inkscape.org/namespaces/inkscape"
   id="svg2"
   version="1.1"
   inkscape:version="0.48.5 r10040"
   width="2481"
   height="3503"
   sodipodi:docname="E37P06.svg"
   inkscape:export-filename="/Users/su_huynh/Downloads/lang 37/vi/E37P06.png"
   inkscape:export-xdpi="45"
   inkscape:export-ydpi="45">
  <metadata
     id="metadata8">
    <rdf:RDF>
      <cc:Work
         rdf:about="">
        <dc:format>image/svg+xml</dc:format>
        <dc:type
           rdf:resource="http://purl.org/dc/dcmitype/StillImage" />
        <dc:title></dc:title>
      </cc:Work>
    </rdf:RDF>
  </metadata>
  <defs
     id="defs6" />
  <sodipodi:namedview
     pagecolor="#ffffff"
     bordercolor="#666666"
     borderopacity="1"
     objecttolerance="10"
     gridtolerance="10"
     guidetolerance="10"
     inkscape:pageopacity="0"
     inkscape:pageshadow="2"
     inkscape:window-width="1276"
     inkscape:window-height="724"
     id="namedview4"
     showgrid="false"
     inkscape:zoom="0.31334718"
     inkscape:cx="1749.6689"
     inkscape:cy="2505.5023"
     inkscape:window-x="0"
     inkscape:window-y="0"
     inkscape:window-maximized="0"
     inkscape:current-layer="layer3"
     inkscape:pagecheckerboard="0"
     inkscape:showpageshadow="0"
     inkscape:deskcolor="#d1d1d1" />
  <g
     inkscape:groupmode="layer"
     id="layer2"
     inkscape:label="artwork"
     sodipodi:insensitive="true">
    <image
       sodipodi:absref="/Users/su_huynh/Downloads/lang 37/vi/../gfx_Pepper-and-Carrot_by-David-Revoy_E37P06.png"
       xlink:href="../gfx_Pepper-and-Carrot_by-David-Revoy_E37P06.png"
       width="2481"
       height="3503"
       id="image10"
       x="0"
       y="0" />
  </g>
  <g
     inkscape:groupmode="layer"
     id="layer3"
     inkscape:label="speechbubbles">
    <path
       style="fill:#ffffff;fill-rule:evenodd;stroke:none;stroke-width:1.66364px;stroke-linecap:butt;stroke-linejoin:miter;stroke-opacity:1"
       d="m 129.095,234.6388 c -1.62857,-66.38441 40.71746,-78.0979 63.51907,-82.00397 22.8018,-3.90372 117.26601,-23.42938 153.0973,7.80977 35.83129,31.23917 45.60361,83.95585 29.31655,103.4815 -16.28686,19.52329 -68.40523,48.81059 -100.97914,50.76245 C 241.47505,316.64039 171.44105,304.9269 148.63944,277.59144 125.83763,250.25839 129.095,234.6388 129.095,234.6388 Z"
       id="path1365"
       inkscape:connector-curvature="0" />
    <path
       style="fill:#ffffff;fill-rule:evenodd;stroke:none;stroke-width:1.18625px;stroke-linecap:butt;stroke-linejoin:miter;stroke-opacity:1"
       d="m 276.57128,286.65867 c 0,0 -8.31854,14.71485 -3.94644,34.32306 4.3721,19.60821 13.90542,39.57744 34.7933,54.14841 -41.89702,-20.22752 -65.69947,-37.55159 -66.67128,-74.5854 -0.97218,-37.03494 35.82442,-13.88607 35.82442,-13.88607 z"
       id="path1357"
       inkscape:connector-curvature="0" />
    <path
       style="fill:#ffffff;fill-rule:evenodd;stroke:none;stroke-width:0.785069px;stroke-linecap:butt;stroke-linejoin:miter;stroke-opacity:1"
       d="m 993.26171,186.69449 c -40.63103,1.19933 -81.73707,1.06407 -121.60006,7.17005 -17.92906,3.00488 -36.14035,7.33198 -49.90747,15.91505 -14.81571,9.96483 -22.77784,23.4875 -27.43469,36.97735 -8.87885,25.3834 -8.20968,52.74566 6.14029,77.18691 6.96681,11.80298 17.70936,23.15357 33.85608,30.17922 16.64296,7.03635 35.65567,10.91293 54.40237,14.57496 32.00518,5.31467 65.28633,4.83621 97.98087,3.84562 29.1145,-0.93525 58.7033,-3.13143 85.8474,-10.68482 15.013,-4.07172 29.8947,-9.24132 41.0504,-17.2826 11.9221,-9.16557 17.9964,-21.02196 21.4554,-32.78302 5.6692,-20.11772 3.7795,-40.79732 -0.5528,-60.94206 -1.9382,-10.05474 -3.4905,-20.58654 -11.3687,-29.48613 -7.8118,-8.41882 -20.8665,-13.75329 -33.7782,-18.10981 -29.6592,-10.12528 -62.5692,-16.84501 -96.09089,-16.56072 z"
       id="path1353"
       inkscape:connector-curvature="0"
       sodipodi:nodetypes="csssscscsscsc" />
    <path
       style="color:#000000;display:inline;overflow:visible;visibility:visible;fill:#ffffff;fill-opacity:1;fill-rule:nonzero;stroke:none;stroke-width:0.861851px;marker:none;enable-background:accumulate"
       d="m 953.70508,340.64258 c -7.89156,5.93196 -11.59104,16.28682 -10.73276,25.94957 0.42223,4.4898 2.07058,8.76171 2.48862,13.25746 1.01197,7.55227 1.05293,15.42171 -1.40821,22.71484 -1.20442,1.72882 -3.79048,1.05453 -5.01568,-0.29626 -10.07465,-6.60916 -20.06188,-13.83162 -31.69135,-17.45527 -3.79347,-0.92218 -7.49599,1.78526 -9.23632,5.00153 -1.4402,2.77657 -2.01316,5.92993 -2.32924,9.01606 -0.55273,6.5806 1.28554,13.1049 3.96106,19.05818 3.14714,8.05533 6.31422,16.4571 5.93458,25.25193 -0.84545,6.13098 -8.24835,10.22802 -13.88693,7.6472 -6.28697,-1.87961 -10.73205,-6.98767 -15.56562,-11.11151 -8.86497,-7.84865 -17.5953,-16.18188 -28.30526,-21.49467 -7.38254,-2.49937 -15.71863,0.24411 -21.23633,5.4668 -3.28278,2.9805 -6.07223,6.44058 -8.94141,9.80664 5.8814,-4.02407 11.87998,-8.29236 18.92579,-9.9668 5.92728,0.27474 10.83062,3.99283 15.65346,7.04174 9.22342,6.01627 16.39972,14.65414 22.20637,23.90936 3.76567,5.4691 7.51953,11.12941 12.67093,15.3981 3.2658,1.63675 6.90342,2.34098 10.46142,3.03947 5.33481,0.86184 10.93374,1.00049 16.1436,-0.58041 5.05084,-2.68449 7.63974,-8.48655 7.90731,-14.00736 1.31557,-10.50648 -1.34041,-20.96489 -4.32747,-30.9597 -1.34044,-4.77497 -2.55206,-9.60437 -3.14531,-14.53651 1.14339,-2.41987 4.68319,-2.64674 6.56055,-0.98047 7.59492,3.4498 13.00439,10.01681 19.08789,15.47852 8.59672,6.12612 21.82202,3.74033 27.89071,-4.84806 5.2193,-6.70376 6.94821,-15.35423 7.43486,-23.65494 0.82894,-10.02392 1.61175,-20.28559 5.5879,-29.65192 1.16442,-3.02572 2.64205,-5.92432 4.30918,-8.70251 -0.35144,-1.98682 -2.65366,-2.40619 -4.00685,-3.52799 -9.0205,-5.41384 -18.041,-10.82769 -27.06151,-16.24154 l -0.16601,-0.0293 z m 33.15039,19.79687 c -0.62158,0.68067 0.23902,-0.002 0,0 z"
       id="path5058-2"
       inkscape:connector-curvature="0"
       sodipodi:nodetypes="cscsssssscssssccscccc" />
    <path
       style="display:inline;fill:#ffffff;fill-rule:evenodd;stroke:none;stroke-width:1.00035px;stroke-linecap:butt;stroke-linejoin:miter;stroke-opacity:1"
       d="m 1173.1445,85.397215 c 44.9453,-0.463414 60.0909,0.344733 70.4996,1.354983 -1.9326,-2.470478 61.5065,-1.417509 132.8018,0.05891 -21.2124,-1.809131 35.3248,-1.928643 105.7041,-0.916818 -7.9601,-0.872767 10.223,58.90568 85.2118,22.77656 -22.6559,45.96681 -57.6548,76.28253 105.0693,21.06561 -47.6435,30.80918 -122.6459,69.74115 -18.6835,97.02039 -93.6198,12.02554 -117.5557,68.3397 -93.1353,95.0235 -44.6019,-54.00492 -83.2814,-45.12274 -65.899,41.03095 -44.8638,-40.90446 -81.6297,-68.53391 -90.1741,-21.98864 -17.6878,-26.16528 -59.5979,-27.42913 -80.4616,29.64513 -31.7772,-54.69918 -66.4919,-67.60153 -101.526,1.96349 -0.4956,-44.63382 -17.7092,-76.51256 -50.8253,-53.59717 z"
       id="path1100"
       inkscape:connector-curvature="0"
       sodipodi:nodetypes="cccccccccccccc" />
    <path
       style="display:inline;fill:#ffffff;fill-rule:evenodd;stroke:none;stroke-width:1.02035px;stroke-linecap:butt;stroke-linejoin:miter;stroke-opacity:1"
       d="m 2394.4792,802.66902 c -42.3914,0.57491 -56.6763,-0.42767 -66.4936,-1.68097 1.8228,3.06484 -58.0116,1.75854 -125.2556,-0.0731 20.0069,2.24438 -97.0198,12.60536 -163.3999,11.35011 6.0023,-10.18279 -47.7931,-10.17152 -73.0835,-0.15757 72.6255,-32.45072 98.2079,-98.5348 7.6797,-124.01874 64.3462,-4.85589 79.7958,-55.87849 -8.9939,-87.15318 81.6144,7.45346 77.8782,-15.36555 18.6475,-63.01035 69.4585,29.93175 127.1999,4.51295 86.8406,-58.17298 53.0056,35.31915 133.3928,77.20862 100.9827,-24.06269 56.3922,74.78739 76.8707,84.93972 96.549,14.13424 29.9715,67.85899 70.9604,59.05285 88.0025,15.25449 -3.1588,45.57622 10.5614,72.74359 41.7957,44.31509 z"
       id="path1100-1"
       inkscape:connector-curvature="0"
       sodipodi:nodetypes="cccccccccccccc" />
    <path
       style="display:inline;fill:#ffffff;fill-rule:evenodd;stroke:none;stroke-width:1.21129px;stroke-linecap:butt;stroke-linejoin:miter;stroke-opacity:1"
       d="m 1418.7386,299.99278 c 32.8791,33.53516 56.7879,77.06946 103.0231,108.5417 l -39.4041,4.85315 c 33.1236,33.29864 86.1701,72.49084 86.1701,72.49084 0,0 -36.1582,-9.1905 -137.95,-87.08512 l 35.6661,-4.58596 c -28.5603,-35.78999 -82.3648,-65.49689 -123.704,-98.20746 z"
       id="path957"
       sodipodi:nodetypes="cccccccc" />
    <path
       style="display:inline;fill:#ffffff;fill-rule:evenodd;stroke:none;stroke-width:1.15094px;stroke-linecap:butt;stroke-linejoin:miter;stroke-opacity:1"
       d="m 2135.3316,677.94435 c -94.5252,-53.78313 -255.9511,-97.55437 -255.9511,-97.55437 0,0 30.8361,-7.14437 136.3682,19.77436 l 147.9944,28.48852 c 276.9342,105.20644 -79.315,87.53799 -28.4115,49.29149 z"
       id="path957-2"
       sodipodi:nodetypes="ccccc" />
    <path
       style="fill:#ffffff;fill-rule:evenodd;stroke:none"
       d="m 1344.4209,974.46829 c 8.1424,-38.90489 42.7478,-58.35669 89.5671,-62.52576 46.8192,-4.16778 248.3452,-1.3884 274.8081,8.33686 26.4633,9.72654 81.4247,31.95772 56.9975,77.80972 -24.4276,45.85209 -109.9235,38.90499 -152.6715,38.90499 -42.7478,0 -205.5971,4.169 -232.06,-13.8943 -26.4631,-18.0635 -34.6054,-4.1679 -36.6412,-48.63151 z"
       id="path1297"
       inkscape:connector-curvature="0" />
    <path
       style="fill:#ffffff;fill-rule:evenodd;stroke:none"
       d="m 1763.2585,1028.0046 c -44.1943,0.3091 -88.2501,2.8949 -132.3793,4.1427 -17.8399,2.1108 -35.7582,5.5186 -50.9365,12.0747 -11.9275,7.694 -18.883,17.8355 -25.3416,27.7013 -5.6704,11.6465 -1.6704,23.9792 2.1145,35.59 3.101,8.7076 9.4876,17.1158 19.9623,23.1297 9.0462,5.8795 20.2489,11.0983 33.4249,11.9047 12.4726,1.1423 25.0699,1.6304 37.517,2.9013 25.5943,1.904 51.3275,4.7233 77.1671,3.4591 35.2311,-2.2497 70.2482,-5.8557 104.9202,-10.4392 9.1978,-1.3602 18.5013,-4.3242 23.2064,-9.846 5.0168,-5.0474 9.4563,-10.3681 13.1648,-15.8544 4.4491,-8.8642 2.3424,-18.2914 2.8118,-27.4308 -0.1919,-7.5537 0.2171,-15.6712 -6.2762,-22.3234 -6.335,-6.8847 -15.5998,-12.3861 -24.5975,-17.8055 -9.7617,-5.4958 -21.5607,-9.2105 -33.7611,-11.891 -13.0771,-3.1838 -26.9082,-5.5551 -40.9968,-5.3132 z"
       id="path1299"
       inkscape:connector-curvature="0"
       sodipodi:nodetypes="ccssssssscscc" />
    <path
       style="fill:#ffffff;fill-rule:evenodd;stroke:none;display:inline"
       d="m 1552.4142,1117.0506 c 56.7981,26.7075 109.1569,19.7454 108.1819,-39.6058 27.0982,64.6794 45.9029,79.4106 57.0552,48.0532 35.8763,27.8998 58.2839,20.7498 76.0739,1.5849 6.631,25.2625 20.8508,15.4205 33.1572,14.4285 4.0534,5.7695 -9.8678,19.6011 46.3745,1.9574 3.6432,7.5991 8.5508,14.1808 41.4946,-1.8135 8.5351,30.7158 35.9183,-0.9446 63.9713,-34.8196 -17.4778,42.0008 -10.2306,48.1362 12.1026,32.388 -10.2106,17.2334 -16.3175,30.6118 22.4764,1.8067 -13.2811,31.9255 21.5617,10.5482 77.8026,-34.5313 -42.0197,38.1584 -79.9993,95.6848 16.4345,76.4166 -26.952,13.1987 -72.2954,54.7231 0.4939,72.1924 -13.5886,6.5569 -55.0749,-4.3023 -20.4678,25.3768 4.6366,3.4816 -10.8857,5.2255 18.739,14.7569 -17.4878,-0.9713 -28.2125,0.9723 -12.1027,14.4759 -31.9217,-1.3764 -46.0088,30.0889 -22.5727,48.2378 -46.2272,-23.6177 -48.7711,-15.437 -50.1398,-6.3999 -57.936,-32.0934 -61.337,-22.4398 -69.1577,-16.1697 -28.2395,-0.3477 -56.4791,-4.825 -84.7186,29.0312 -7.3957,-21.5776 -22.2229,-38.3774 -84.7185,-24.5271 27.4403,-26.6838 -11.5972,-10.1324 -41.4946,0.474 16.3723,-33.707 -25.1788,-12.2271 -77.8028,19.8026 29.4691,-36.9846 -4.0009,-24.1001 -53.5975,1.5613 37.7995,-66.8582 2.7719,-78.1859 -84.7185,-58.0023 34.911,-12.5955 57.3298,-61.9501 21.0792,-92.8682 40.8648,9.7324 55.2271,-17.1386 9.0163,-34.501 61.2109,13.3182 40.8697,-32.0489 -2.9619,-59.3058 z"
       id="path4508-2"
       inkscape:connector-curvature="0"
       sodipodi:nodetypes="cccccccccccccccccccccccccccc" />
    <path
       style="display:inline;fill:#ffffff;fill-rule:evenodd;stroke:none;stroke-width:1.41701px;stroke-linecap:butt;stroke-linejoin:miter;stroke-opacity:1"
       d="m 1715.9751,1228.435 c 47.6698,27.5102 91.6137,20.3389 90.7954,-40.7962 22.7432,66.6234 38.5256,81.7973 47.8857,49.4975 30.1104,28.7383 48.9167,21.3734 63.8477,1.6325 5.5652,26.0218 17.4996,15.884 27.8283,14.8622 3.4019,5.9429 -8.2819,20.1902 38.9213,2.0162 3.0577,7.8275 7.1766,14.607 34.8258,-1.868 7.1634,31.639 30.1457,-0.973 53.6902,-35.8661 -14.6689,43.2631 -8.5864,49.5829 10.1576,33.3614 -8.5697,17.7514 -13.6951,31.5319 18.8641,1.861 -11.1467,32.885 18.0963,10.8652 65.2985,-35.5691 -35.2664,39.3052 -67.1422,98.5606 13.7932,78.7133 -22.6204,13.5954 -60.6764,56.3678 0.4145,74.3621 -11.4047,6.754 -46.2235,-4.4316 -17.1783,26.1396 3.8914,3.5862 -9.1361,5.3825 15.7274,15.2004 -14.6773,-1.0005 -23.6784,1.0015 -10.1577,14.911 -26.7914,-1.4178 -38.6144,30.9932 -18.9448,49.6875 -38.7979,-24.3275 -40.9329,-15.9009 -42.0816,-6.5922 -48.6249,-33.058 -51.4792,-23.1142 -58.043,-16.6557 -23.7011,-0.3581 -47.4021,-4.97 -71.1032,29.9038 -6.2069,-22.2262 -18.6513,-39.5309 -71.1029,-25.2643 23.0303,-27.4858 -9.7333,-10.4369 -34.8258,0.4882 13.7411,-34.72 -21.1322,-12.5946 -65.2987,20.3978 24.7331,-38.0962 -3.3579,-24.8244 -44.9836,1.6082 31.7247,-68.8676 2.3264,-80.5358 -71.103,-59.7455 29.3004,-12.9741 48.1161,-63.8121 17.6916,-95.6594 34.2971,10.0249 46.3513,-17.6537 7.5672,-35.5379 51.3734,13.7184 34.3014,-33.0122 -2.4859,-61.0883 z"
       id="path4508-2-3"
       inkscape:connector-curvature="0"
       sodipodi:nodetypes="cccccccccccccccccccccccccccc" />
    <path
       style="display:inline;fill:#ffffff;fill-rule:evenodd;stroke:none;stroke-width:0.82688px;stroke-linecap:butt;stroke-linejoin:miter;stroke-opacity:1"
       d="m 223.03839,2049.9977 c 44.40963,1.9562 108.39666,5.8779 57.9817,-1.6857 32.66257,1.8313 74.4298,5.4214 86.29409,2.504 11.54755,1.0885 18.41219,0.7184 12.62143,-1.5634 31.52989,2.8416 47.3862,1.7361 66.08925,1.3475 21.2963,2.0346 36.6284,1.6171 46.39705,-1.0877 -7.1015,5.6406 50.2879,1.5728 95.63051,-0.7951 -3.07518,1.2879 -30.40238,4.8783 16.18142,1.4514 -4.39723,1.8574 -3.94257,3.3811 100.135,-2.2207 -45.96467,5.0275 -24.28187,3.8873 -0.012,2.5113 -38.82049,5.4257 29.77888,9.4415 55.83106,8.9116 -77.90021,15.1943 -113.62842,42.3338 12.24418,88.4165 -49.05016,0.2837 -123.65447,-22.422 -98.99442,77.9462 -73.57472,-54.7599 -108.93439,-5.4464 -93.80044,40.6583 -43.95744,-62.393 -71.64944,-62.0197 -80.92629,9.4158 -25.33646,-60.767 -52.20379,-72.9244 -81.34293,-12.945 10.95777,-89.6863 -56.59211,-63.2022 -89.46096,-23.7851 25.74854,-41.6566 -20.31954,-48.5646 -72.57645,-9.3964 63.90502,-63.2583 18.53891,-58.536 -56.43499,-35.3941 89.38703,-46.0158 76.25662,-65.3801 -14.79036,-64.4883 111.07935,-6.0948 89.32452,-76.0106 38.93318,-79.8011 z"
       id="path740849"
       sodipodi:nodetypes="cccccccccccccccccccccc" />
    <path
       style="color:#000000;display:inline;overflow:visible;visibility:visible;fill:#ffffff;fill-opacity:1;fill-rule:nonzero;stroke:none;stroke-width:1px;marker:none;enable-background:accumulate"
       d="m 625.17576,2198.464 c 32.4119,11.8493 68.59806,43.3077 68.15392,52.5243 2.57923,-9.5085 6.6039,-17.4308 9.62749,-23.6657 13.04254,7.2714 43.8298,44.5047 61.80037,65.0819 -15.05247,-42.9 -51.67758,-88.1131 -70.34793,-102.0634 -0.43359,10.3146 -2.88747,18.5199 -5.87724,22.4034 -19.74556,7.9495 -28.17774,-60.2326 -25.11612,-64.3964 z"
       id="path5066-6"
       inkscape:connector-curvature="0"
       sodipodi:nodetypes="cccccccc" />
    <path
       style="color:#000000;fill:#ffffff;fill-opacity:1;fill-rule:nonzero;stroke:none;stroke-width:1.71777999px;marker:none;visibility:visible;display:inline;overflow:visible;enable-background:accumulate"
       d="m 1860.7755,2268.1362 c 11.7561,76.7939 -90.6656,46.5565 -121.8121,31.507 63.0292,40.8155 94.4663,69.9248 -22.5914,68.0358 115.6097,58.0789 20.6766,60.3091 0.7095,78.5943 93.9627,11.6338 52.5463,93.5064 34.9161,96.2133 109.5495,0.03 82.5004,2.1424 86.1711,3.8204 9.7338,-0.789 55.2188,-3.1932 56.3665,-0.5235 73.9154,-2.5576 178.1416,-4.2154 182.5562,0.2415 30.4686,-2.2467 98.0865,0.9233 56.3667,-0.5235 74.3184,-3.4891 138.6314,-2.246 203.4819,-1.2719 17.7712,-1.0525 20.6837,-2.6659 76.0465,-2.2956 -7.2048,-1.0397 -12.7199,-66.3049 -7.9448,-76.2806 -6.2698,-14.3738 -7.3916,-29.3556 4.3679,-45.8568 -8.9105,-1.3044 -17.2147,-4.2642 -6.6052,-59.6777 -14.6023,2.9472 -104.9075,10.7526 -20.6806,-87.0778 -63.7337,45.3282 -187.9919,81.096 -170.8929,-22.8262 -35.6174,61.4705 -92.1787,88.3576 -111.5259,11.4433 -37.6563,69.8993 -84.0492,43.9845 -111.404,-4.9652 -21.7717,36.7737 -74.586,89.9323 -127.5255,11.4432 z"
       id="path3549-3-7-5"
       inkscape:connector-curvature="0"
       sodipodi:nodetypes="ccccccccccccccccccc" />
    <path
       style="fill:#ffffff;fill-rule:evenodd;stroke:none;display:inline"
       d="m 1636.5226,2814.6312 c 21.774,-12.7108 20.3717,-40.7804 -6.3018,-49.7287 57.8746,-4.9303 13.0235,-26.2918 -16.4355,-51.2006 44.0346,15.1749 97.9946,42.8413 75.3907,-31.9821 31.2374,21.2498 56.7506,39.7738 76.3203,7.948 9.9324,14.8757 30.3058,28.7256 52.668,4.1649 7.843,12.1798 16.7725,7.441 26.8401,-15.0211 9.1423,27.7161 30.873,27.3405 53.5479,-2.1907 15.8866,30.3075 33.3992,55.4772 72.0236,13.9444 -5.9374,31.0245 14.0697,29.6434 45.8036,13.6153 -4.7817,13.4768 0.5687,17.9559 37.9905,7.1899 -9.9509,13.0386 -23.4241,20.8751 12.6562,16.9627 -16.0334,11.8522 -33.626,38.0698 21.0054,31.5701 -42.861,20.0359 -18.4657,28.1053 -17.5436,39.7276 -30.6711,-6.9867 -44.8693,-3.9695 -14.1469,26.3282 -15.9289,-0.4941 -50.029,-23.0892 -30.8811,20.326 -15.1301,-11.1491 -71.5689,-25.4448 -45.7731,7.3868 3.9631,-18.4943 -52.6254,-20.4483 -61.8726,16.5402 -5.284,-39.6306 -74.7129,-38.727 -86.6021,-1.7385 -3.9631,-19.8153 -49.9428,-42.3586 -76.3632,13.1241 10.5682,-66.0509 -15.7973,-41.018 -42.2177,-14.5976 8.8514,-18.8906 -9.8166,-32.1525 -24.373,-29.4005 -4.3063,-5.5815 6.753,-18.955 -24.9519,-10.6417 1.7327,-13.6995 -13.662,-11.9906 -26.7838,-12.3266 z"
       id="path1058"
       sodipodi:nodetypes="ccccccccccccccccccccccccc"
       inkscape:connector-curvature="0" />
    <path
       style="fill:#ffffff;fill-rule:evenodd;stroke:none;display:inline"
       d="m 1763.4983,2967.4578 c 48.8272,-0.5037 42.3581,21.7227 24.7741,48.5177 13.527,-2.2303 45.1641,-27.584 26.4047,11.4097 40.9609,-15.3511 15.726,13.7097 12.3976,27.9973 16.5112,-3.5559 26.6189,8.9302 6.5372,57.3725 20.2785,-11.9397 51.2661,-55.2001 48.957,-1.0781 16.4165,-7.2775 37.9858,-33.8713 40.7232,10.1305 27.3975,-38.3379 52.4751,-42.8088 57.8985,25.9289 20.1671,-45.0407 37.7284,-53.9143 51.5212,-10.4718 19.2053,-29.8098 46.6052,-38.3545 70.7484,16.5652 -7.0483,-43.9228 3.6515,-71.6948 82.635,-37.33 -0.5729,-38.8649 15.9083,-56.8313 81.774,-14.2805 -13.9987,-25.3942 -47.8438,-65.4237 30.9438,-22.3951 -41.4361,-53.656 3.5221,-89.1514 38.024,-126.8448 -42.0119,26.9084 -46.4619,17.1268 -30.633,-12.4631 -66.8063,36.3241 -59.7996,-15.5607 -42.0232,-80.3159 -48.9191,35.64 -41.9016,15.6439 -30.1737,-2.8159 -86.946,38.6858 -50.6836,-19.0282 -42.6551,-41.3139 -62.9836,101.0576 -44.4657,39.3615 -37.5131,0.7611 -35.7566,60.1755 -50.8293,60.6361 -44.0063,2.4406 -59.9635,72.8376 -38.7051,22.9125 -50.3557,-9.497 -5.284,39.6306 -24.1061,57.55 -28.0692,-0.5748 -14.5312,72.656 -34.4363,47.4284 -41.0414,13.0819 -12.451,61.7846 -44.6328,52.2844 -67.6655,2.4922 11.8891,81.9031 -38.1168,59.5347 -61.8951,25.1882 9.2471,48.8777 -13.9917,55.4719 -39.091,43.5827 13.2102,33.0255 -12.2677,36.4338 -37.367,33.7918 25.143,8.682 23.9926,32.5951 -20.8494,40.1206 z"
       id="path961"
       sodipodi:nodetypes="cccccccccccccccccccccccccccc"
       inkscape:connector-curvature="0" />
    <path
       style="display:inline;fill:#ffffff;fill-rule:evenodd;stroke:none;stroke-width:1px;stroke-linecap:butt;stroke-linejoin:miter;stroke-opacity:1"
       d="m 1487.7373,2719.1203 100.518,94.2706 6.505,-33.2379 70.6075,62.6158 11.5455,-27.2884 -90.5705,-67.709 -8.6863,37.6437 z"
       id="path4667-2"
       inkscape:connector-curvature="0" />
  </g>
  <g
     inkscape:groupmode="layer"
     id="layer1"
     inkscape:label="txt"
     style="display:inline">
    <text
       xml:space="preserve"
       style="font-size:45.33330154px;font-style:normal;font-variant:normal;font-weight:normal;font-stretch:normal;text-align:center;line-height:125%;letter-spacing:0px;word-spacing:0px;text-anchor:middle;fill:#000000;fill-opacity:1;stroke:none;font-family:ComicSpice;-inkscape-font-specification:ComicSpice"
       x="248.18468"
       y="212.4789"
       id="text4246-70-2-2-2-7-4-9-9-6-1-2-3-9-2-7-9"
       sodipodi:linespacing="125%"><tspan
         sodipodi:role="line"
         style="font-size:45.33330154px;font-style:normal;font-variant:normal;font-weight:normal;font-stretch:normal;font-family:ComicSpice;-inkscape-font-specification:ComicSpice"
         x="248.18468"
         y="212.4789"
         id="tspan1721">Dạ, được</tspan><tspan
         sodipodi:role="line"
         style="font-size:45.33330154px;font-style:normal;font-variant:normal;font-weight:normal;font-stretch:normal;font-family:ComicSpice;-inkscape-font-specification:ComicSpice"
         x="248.18468"
         y="269.14554"
         id="tspan50651">chưa?</tspan></text>
    <text
       xml:space="preserve"
       style="font-size:45.33330154px;font-style:normal;font-variant:normal;font-weight:normal;font-stretch:normal;text-align:center;line-height:125%;letter-spacing:0px;word-spacing:0px;text-anchor:middle;fill:#000000;fill-opacity:1;stroke:none;font-family:ComicSpice;-inkscape-font-specification:ComicSpice"
       x="971.63519"
       y="258.15771"
       id="text4246-70-2-2-2-7-4-9-9-6-1-2-3-9-2-7-9-3"
       sodipodi:linespacing="125%"><tspan
         sodipodi:role="line"
         style="font-size:45.33330154px;font-style:normal;font-variant:normal;font-weight:normal;font-stretch:normal;font-family:ComicSpice;-inkscape-font-specification:ComicSpice"
         x="971.63519"
         y="258.15771"
         id="tspan1018">Ngài buồn muốn</tspan><tspan
         sodipodi:role="line"
         style="font-size:45.33330154px;font-style:normal;font-variant:normal;font-weight:normal;font-stretch:normal;font-family:ComicSpice;-inkscape-font-specification:ComicSpice"
         x="971.63519"
         y="314.82434"
         id="tspan50639">khóc chưa?</tspan></text>
    <text
       xml:space="preserve"
       style="font-size:62.72869873px;font-style:normal;font-variant:normal;font-weight:bold;font-stretch:normal;text-align:center;line-height:125%;letter-spacing:0px;word-spacing:0px;text-anchor:middle;fill:#000000;fill-opacity:1;stroke:none;font-family:ComicSpice;-inkscape-font-specification:ComicSpice Bold"
       x="1378.2051"
       y="189.3369"
       id="text4246-70-2-2-2-7-4-9-9-6-1-2-3-9-2-7-9-3-7"
       sodipodi:linespacing="125%"><tspan
         sodipodi:role="line"
         style="font-size:62.72869873px;font-style:normal;font-variant:normal;font-weight:bold;font-stretch:normal;font-family:ComicSpice;-inkscape-font-specification:ComicSpice Bold"
         x="1378.2051"
         y="189.3369"
         id="tspan1088">MÀY NGHIÊM</tspan><tspan
         sodipodi:role="line"
         style="font-size:62.72869873px;font-style:normal;font-variant:normal;font-weight:bold;font-stretch:normal;font-family:ComicSpice;-inkscape-font-specification:ComicSpice Bold"
         x="1378.2051"
         y="267.74777"
         id="tspan50647">TÚC KHÔNG?!</tspan></text>
    <text
       xml:space="preserve"
       style="font-size:62.2419014px;font-style:normal;font-variant:normal;font-weight:bold;font-stretch:normal;text-align:center;line-height:125%;letter-spacing:0px;word-spacing:0px;text-anchor:middle;fill:#000000;fill-opacity:1;stroke:none;font-family:ComicSpice;-inkscape-font-specification:ComicSpice Bold"
       x="2216.9949"
       y="619.21252"
       id="text4246-70-2-2-2-7-4-9-9-6-1-2-3-9-2-7-9-3-7-6"
       sodipodi:linespacing="125%"><tspan
         sodipodi:role="line"
         style="font-size:62.2419014px;font-style:normal;font-variant:normal;font-weight:bold;font-stretch:normal;font-family:ComicSpice;-inkscape-font-specification:ComicSpice Bold"
         x="2216.9949"
         y="619.21252"
         id="tspan1163">MÀY HẾT</tspan><tspan
         sodipodi:role="line"
         style="font-size:62.2419014px;font-style:normal;font-variant:normal;font-weight:bold;font-stretch:normal;font-family:ComicSpice;-inkscape-font-specification:ComicSpice Bold"
         x="2216.9949"
         y="697.01489"
         id="tspan50658">Ý KIẾN</tspan><tspan
         sodipodi:role="line"
         style="font-size:62.2419014px;font-style:normal;font-variant:normal;font-weight:bold;font-stretch:normal;font-family:ComicSpice;-inkscape-font-specification:ComicSpice Bold"
         x="2216.9949"
         y="774.81726"
         id="tspan50660">RỒI HẢ?!</tspan></text>
    <text
       xml:space="preserve"
       style="font-size:49.90200043px;font-style:normal;font-variant:normal;font-weight:normal;font-stretch:normal;text-align:center;line-height:125%;letter-spacing:0px;word-spacing:0px;text-anchor:middle;fill:#000000;fill-opacity:1;stroke:none;font-family:ComicSpice;-inkscape-font-specification:ComicSpice"
       x="1559.5663"
       y="988.03656"
       id="text4246-70-2-2-2-7-4-9-9-6-1-2-3-9-2-7-9-3-2"
       sodipodi:linespacing="125%"><tspan
         sodipodi:role="line"
         style="font-size:49.90200043px;font-style:normal;font-variant:normal;font-weight:normal;font-stretch:normal;font-family:ComicSpice;-inkscape-font-specification:ComicSpice"
         x="1559.5663"
         y="988.03656"
         id="tspan1229">Thử viết văn buồn!</tspan></text>
    <text
       xml:space="preserve"
       style="font-size:49.90200043px;font-style:normal;font-variant:normal;font-weight:normal;font-stretch:normal;text-align:center;line-height:125%;letter-spacing:0px;word-spacing:0px;text-anchor:middle;fill:#000000;fill-opacity:1;stroke:none;font-family:ComicSpice;-inkscape-font-specification:ComicSpice"
       x="1722.0437"
       y="1101.7063"
       id="text4246-70-2-2-2-7-4-9-9-6-1-2-3-9-2-7-9-3-2-3"
       sodipodi:linespacing="125%"><tspan
         sodipodi:role="line"
         style="font-size:49.90200043px;font-style:normal;font-variant:normal;font-weight:normal;font-stretch:normal;font-family:ComicSpice;-inkscape-font-specification:ComicSpice"
         x="1722.0437"
         y="1101.7063"
         id="tspan1237">Viết bi kịch!</tspan></text>
    <text
       xml:space="preserve"
       style="font-size:83.92310333px;font-style:normal;font-variant:normal;font-weight:bold;font-stretch:normal;text-align:center;line-height:125%;letter-spacing:0px;word-spacing:0px;text-anchor:middle;fill:#000000;fill-opacity:1;stroke:none;font-family:ComicSpice;-inkscape-font-specification:ComicSpice Bold"
       x="1838.3158"
       y="1268.1646"
       id="text4246-70-2-2-2-7-4-9-9-6-1-2-3-9-2-7-9-3-2-3-6-1"
       sodipodi:linespacing="125%"><tspan
         sodipodi:role="line"
         style="font-size:83.92310333px;font-style:normal;font-variant:normal;font-weight:bold;font-stretch:normal;font-family:ComicSpice;-inkscape-font-specification:ComicSpice Bold"
         x="1838.3158"
         y="1268.1646"
         id="tspan37654-7">NGHỆ THUẬT!</tspan></text>
    <text
       xml:space="preserve"
       style="font-size:85.71430206px;font-style:normal;font-variant:normal;font-weight:bold;font-stretch:normal;text-align:center;line-height:125%;letter-spacing:0px;word-spacing:0px;text-anchor:middle;fill:#000000;fill-opacity:1;stroke:none;font-family:ComicSpice;-inkscape-font-specification:ComicSpice Bold"
       x="1949.1381"
       y="1391.4756"
       id="text4246-70-2-2-2-7-4-9-9-6-1-2-3-9-2-7-9-3-2-3-6-1-9"
       sodipodi:linespacing="125%"><tspan
         sodipodi:role="line"
         style="font-size:85.71430206px;font-style:normal;font-variant:normal;font-weight:bold;font-stretch:normal;font-family:ComicSpice;-inkscape-font-specification:ComicSpice Bold"
         x="1949.1381"
         y="1391.4756"
         id="tspan37654-7-2">BI KỊCH!</tspan></text>
    <text
       xml:space="preserve"
       style="font-size:63.24029922px;font-style:normal;font-variant:normal;font-weight:bold;font-stretch:normal;text-align:center;line-height:125%;letter-spacing:0px;word-spacing:0px;text-anchor:middle;fill:#000000;fill-opacity:1;stroke:none;font-family:ComicSpice;-inkscape-font-specification:ComicSpice Bold"
       x="483.78723"
       y="2154.6296"
       id="text4246-70-2-2-2-7-4-9-9-6-1-2-3-9-2-7-9-3-2-3-0-7"
       sodipodi:linespacing="125%"><tspan
         sodipodi:role="line"
         style="font-size:63.24029922px;font-style:normal;font-variant:normal;font-weight:bold;font-stretch:normal;font-family:ComicSpice;-inkscape-font-specification:ComicSpice Bold"
         x="483.78723"
         y="2154.6296"
         id="tspan100735-9">NHƯNG MÀY?!</tspan></text>
    <text
       xml:space="preserve"
       style="font-size:63.24029922px;font-style:normal;font-variant:normal;font-weight:bold;font-stretch:normal;text-align:center;line-height:125%;letter-spacing:0px;word-spacing:0px;text-anchor:middle;fill:#000000;fill-opacity:1;stroke:none;font-family:ComicSpice;-inkscape-font-specification:ComicSpice Bold"
       x="2081.9277"
       y="2395.3088"
       id="text4246-70-2-2-2-7-4-9-9-6-1-2-3-9-2-7-9-3-2-3-0"
       sodipodi:linespacing="125%"><tspan
         sodipodi:role="line"
         style="font-size:63.24029922px;font-style:normal;font-variant:normal;font-weight:bold;font-stretch:normal;font-family:ComicSpice;-inkscape-font-specification:ComicSpice Bold"
         x="2081.9277"
         y="2395.3088"
         id="tspan1360">MÀY CHƯA CHUẨN BỊ</tspan><tspan
         sodipodi:role="line"
         style="font-size:63.24029922px;font-style:normal;font-variant:normal;font-weight:bold;font-stretch:normal;font-family:ComicSpice;-inkscape-font-specification:ComicSpice Bold"
         x="2081.9277"
         y="2474.3591"
         id="tspan50643">TRƯỚC ĐẾN!</tspan></text>
    <text
       xml:space="preserve"
       style="font-size:51.08089828px;font-style:normal;font-variant:normal;font-weight:bold;font-stretch:normal;text-align:center;line-height:125%;letter-spacing:0px;word-spacing:0px;text-anchor:middle;fill:#000000;fill-opacity:1;stroke:none;font-family:ComicSpice;-inkscape-font-specification:ComicSpice Bold"
       x="1853.8928"
       y="2795.1357"
       id="text4246-70-2-2-2-7-4-9-9-6-1-2-3-9-2-7-9-3-2-3-0-2"
       sodipodi:linespacing="125%"><tspan
         sodipodi:role="line"
         style="font-size:51.08089828px;font-style:normal;font-variant:normal;font-weight:bold;font-stretch:normal;font-family:ComicSpice;-inkscape-font-specification:ComicSpice Bold"
         x="1853.8928"
         y="2795.1357"
         id="tspan1430">THÔI, BIẾN ĐI!</tspan></text>
    <text
       xml:space="preserve"
       style="font-size:49.68650055px;font-style:normal;font-variant:normal;font-weight:bold;font-stretch:normal;text-align:center;line-height:125%;letter-spacing:0px;word-spacing:0px;text-anchor:middle;fill:#000000;fill-opacity:1;stroke:none;font-family:ComicSpice;-inkscape-font-specification:ComicSpice Bold"
       x="2042.4871"
       y="2936.5046"
       id="text4246-70-2-2-2-7-4-9-9-6-1-2-3-9-2-7-9-3-2-3-0-2-9"
       sodipodi:linespacing="125%"><tspan
         sodipodi:role="line"
         style="font-size:49.68650055px;font-style:normal;font-variant:normal;font-weight:bold;font-stretch:normal;font-family:ComicSpice;-inkscape-font-specification:ComicSpice Bold"
         x="2042.4871"
         y="2936.5046"
         id="tspan1505">ĐI VỀ VÀ TRỞ LẠI</tspan><tspan
         sodipodi:role="line"
         style="font-size:49.68650055px;font-style:normal;font-variant:normal;font-weight:bold;font-stretch:normal;font-family:ComicSpice;-inkscape-font-specification:ComicSpice Bold"
         x="2042.4871"
         y="2998.6128"
         id="tspan50673">SAU MÀY ĐÃ CHUẨN</tspan><tspan
         sodipodi:role="line"
         style="font-size:49.68650055px;font-style:normal;font-variant:normal;font-weight:bold;font-stretch:normal;font-family:ComicSpice;-inkscape-font-specification:ComicSpice Bold"
         x="2042.4871"
         y="3060.7209"
         id="tspan50675">BỊ CHO KỸ!</tspan></text>
  </g>
</svg>
