<?xml version="1.0" encoding="UTF-8" standalone="no"?>
<!-- Created with Inkscape (http://www.inkscape.org/) -->

<svg
   xmlns:dc="http://purl.org/dc/elements/1.1/"
   xmlns:cc="http://creativecommons.org/ns#"
   xmlns:rdf="http://www.w3.org/1999/02/22-rdf-syntax-ns#"
   xmlns:svg="http://www.w3.org/2000/svg"
   xmlns="http://www.w3.org/2000/svg"
   xmlns:xlink="http://www.w3.org/1999/xlink"
   xmlns:sodipodi="http://sodipodi.sourceforge.net/DTD/sodipodi-0.dtd"
   xmlns:inkscape="http://www.inkscape.org/namespaces/inkscape"
   id="svg2"
   version="1.1"
   inkscape:version="0.48.5 r10040"
   width="2481"
   height="3503"
   sodipodi:docname="E37P03.svg"
   inkscape:export-filename="/Users/su_huynh/Downloads/lang 3/vi/E37P03.png"
   inkscape:export-xdpi="45"
   inkscape:export-ydpi="45">
  <metadata
     id="metadata8">
    <rdf:RDF>
      <cc:Work
         rdf:about="">
        <dc:format>image/svg+xml</dc:format>
        <dc:type
           rdf:resource="http://purl.org/dc/dcmitype/StillImage" />
        <dc:title></dc:title>
      </cc:Work>
    </rdf:RDF>
  </metadata>
  <defs
     id="defs6" />
  <sodipodi:namedview
     pagecolor="#ffffff"
     bordercolor="#666666"
     borderopacity="1"
     objecttolerance="10"
     gridtolerance="10"
     guidetolerance="10"
     inkscape:pageopacity="0"
     inkscape:pageshadow="2"
     inkscape:window-width="1276"
     inkscape:window-height="724"
     id="namedview4"
     showgrid="false"
     inkscape:zoom="0.3096744"
     inkscape:cx="1854.1076"
     inkscape:cy="2904.3483"
     inkscape:window-x="31"
     inkscape:window-y="93"
     inkscape:window-maximized="0"
     inkscape:current-layer="layer1"
     inkscape:pagecheckerboard="0"
     inkscape:showpageshadow="0"
     inkscape:deskcolor="#d1d1d1" />
  <g
     inkscape:groupmode="layer"
     id="layer2"
     inkscape:label="artwork"
     sodipodi:insensitive="true">
    <image
       sodipodi:absref="/Users/su_huynh/Downloads/lang 3/vi/../gfx_Pepper-and-Carrot_by-David-Revoy_E37P03.png"
       xlink:href="../gfx_Pepper-and-Carrot_by-David-Revoy_E37P03.png"
       y="0"
       x="0"
       id="image10"
       height="3503"
       width="2481" />
  </g>
  <g
     inkscape:groupmode="layer"
     id="layer3"
     inkscape:label="speechbubbles">
    <path
       style="fill:#ffffff;stroke:none"
       d="m 360.81076,465.27055 c -24.56923,-19.74397 -22.57209,-29.32044 -19.38779,-40.05561 3.18412,-10.73531 7.28186,-20.14814 3.61763,-26.41179 -3.66404,-6.26351 -11.74206,-11.72395 -18.29755,-14.98031 -6.55548,-3.25646 -0.45551,-10.46603 0.21288,-18.13003 0.66831,-7.66412 -10.65562,-47.81818 -10.65562,-47.81818 0,0 -16.12893,27.00135 -18.3493,36.73423 -2.22054,9.73275 -3.08233,13.28039 -2.88893,17.39675 0.19358,4.1165 2.17394,14.17648 7.99925,19.25288 5.82532,5.0764 13.79112,7.01762 19.0679,9.86162 5.27689,2.84391 3.98478,11.55697 3.32674,20.195 -0.65814,8.63801 0.27632,15.01927 9.71886,26.19244 8.09394,9.57758 25.63593,17.763 25.63593,17.763 z"
       id="path3023-2"
       inkscape:connector-curvature="0"
       sodipodi:nodetypes="csssscssssssc" />
    <path
       style="color:#000000;display:inline;overflow:visible;visibility:visible;fill:#ffffff;fill-opacity:1;fill-rule:nonzero;stroke:none;stroke-width:0.999998px;marker:none;enable-background:accumulate"
       d="m 403.42298,834.07226 c -16.6818,-24.82678 6.70933,-94.25013 56.4409,-100.94979 -22.32483,1.35916 -74.47842,-5.24564 -96.28686,102.62894 -9.86485,48.79671 26.31789,-1.15111 26.31789,-1.15111 z"
       id="path4035-4"
       inkscape:connector-curvature="0"
       sodipodi:nodetypes="ccscc" />
    <path
       style="color:#000000;fill:#ffffff;fill-opacity:1;fill-rule:nonzero;stroke:none;stroke-width:1px;marker:none;visibility:visible;display:inline;overflow:visible;enable-background:accumulate"
       d="m 286.22209,755.6643 c -70.53759,3.72553 -152.34678,29.57823 -167.49953,100.17643 -13.61805,63.44784 23.27736,114.09065 80.18402,128.02 58.61096,14.34651 124.93367,12.53019 180.06961,4.5951 51.91667,-7.47178 104.40614,-36.04204 104.94192,-89.55313 0.8128,-81.18085 -52.44879,-126.05204 -123.05083,-137.48528 -24.64659,-3.99125 -49.68693,-7.07132 -74.64519,-5.75312 z"
       id="path4040-4-5-3"
       inkscape:connector-curvature="0"
       sodipodi:nodetypes="sssssss" />
    <path
       style="color:#000000;fill:#ffffff;fill-opacity:1;fill-rule:nonzero;stroke:none;stroke-width:0.99999601px;marker:none;visibility:visible;display:inline;overflow:visible;enable-background:accumulate"
       d="m 274.70858,148.44514 c -27.37855,0.35566 -55.14586,2.71773 -81.18472,11.70115 -12.51463,4.29551 -24.19421,11.15893 -33.59633,20.51594 -12.05175,11.78332 -20.447,27.45125 -22.624,44.24023 -2.733,18.08724 -1.12339,36.4335 0.0568,54.57896 1.49059,16.24218 5.62571,32.9478 16.02742,45.89863 13.62008,17.5041 34.40388,28.30356 55.87941,32.68001 24.55746,5.27187 49.81601,4.74338 74.78879,5.15948 24.98285,-0.10255 50.19716,-0.39319 74.75057,-5.51102 21.42431,-4.86716 42.48268,-13.64513 59.0032,-28.42297 12.34097,-12.04262 18.44562,-29.18338 19.86876,-46.10061 2.88103,-23.85814 2.39372,-48.75974 -6.20987,-71.47339 -7.9196,-20.64264 -23.82575,-38.21436 -43.95384,-47.5175 -20.04549,-9.74276 -42.50521,-12.55499 -64.46247,-14.39869 -16.08031,-1.26362 -32.22234,-1.39894 -48.34372,-1.35022 z"
       id="path4040-4-5-3-5"
       inkscape:connector-curvature="0"
       sodipodi:nodetypes="zssssz" />
    <path
       style="fill:#ffffff;stroke:none;display:inline"
       d="m 1372.5254,123.51953 c -49.0999,0.40617 -80.8591,6.64811 -126.6858,25.03838 -22.42,9.07708 -39.9322,28.11364 -49.6266,50.016 -5.787,12.8048 -8.5445,26.79015 -9.0565,40.7888 -1.5478,23.1199 1.8324,47.55822 14.8496,67.21746 12.9635,19.23993 33.686,31.55093 54.9012,39.83371 38.9659,15.60249 63.156,23.25833 105.1223,22.07801 38.3334,-1.53179 89.6332,-6.11783 127.8169,-9.52647 73.6511,-6.57478 143.6147,1.40682 161.7201,-82.59733 4.6348,-21.50448 4.6809,-44.73989 -3.0936,-65.34013 -23.1377,-61.30824 -97.0771,-75.734 -151.7976,-82.37847 -46.4769,-5.64349 -77.4123,-5.11327 -124.15,-5.12996 z"
       id="path3280-8-2"
       inkscape:connector-curvature="0"
       sodipodi:nodetypes="cssscccssssc" />
    <path
       style="color:#000000;fill:#ffffff;fill-opacity:1;fill-rule:nonzero;stroke:none;stroke-width:1.176px;marker:none;visibility:visible;display:inline;overflow:visible;enable-background:accumulate"
       d="m 1370.563,356.5919 c -29.6037,17.83323 -43.9539,37.11067 -44.1609,67.8743 -0.085,25.47358 15.1397,50.28081 38.8815,65.95324 53.5699,31.28842 132.8489,37.21223 190.5914,34.82453 58.5403,-4.12552 137.2895,-8.48163 167.9734,-54.50857 13.1259,-19.96636 16.2032,-43.94116 10.9945,-66.1515 -6.2081,-25.77423 -27.7084,-38.76195 -55.3103,-51.54351 -23.5457,-10.9032 -48.3821,-14.38614 -140.3276,-18.03266 -91.9455,-3.64652 -136.3351,3.33883 -168.642,21.58417 z"
       id="path3365-7"
       inkscape:connector-curvature="0"
       sodipodi:nodetypes="scccccsss" />
    <path
       style="fill:#ffffff;fill-rule:evenodd;stroke:none;stroke-width:0.999999px;stroke-linecap:butt;stroke-linejoin:miter;stroke-opacity:1"
       d="m 1615.4482,493.17881 c -6.3324,4.61753 23.1312,48.65505 53.6406,67.52901 38.9988,24.12578 112.2777,14.3494 131.5101,5.98579 -39.7827,19.67647 -151.2589,38.53306 -215.4148,-49.39071 -15.2092,-20.84384 30.2641,-24.12409 30.2641,-24.12409 z"
       id="path1357"
       inkscape:connector-curvature="0"
       inkscape:transform-center-x="-30.354172"
       inkscape:transform-center-y="-147.57618"
       sodipodi:nodetypes="cscsc" />
    <path
       style="color:#000000;display:inline;overflow:visible;visibility:visible;fill:#ffffff;fill-opacity:1;fill-rule:nonzero;stroke:none;stroke-width:1.44436px;marker:none;enable-background:accumulate"
       d="m 130.0861,2768.4588 c 4.1646,-39.7667 52.76306,-68.7922 178.71482,-61.119 67.46643,4.1101 144.08544,6.8552 138.76731,65.1114 -5.31819,58.2567 -115.45731,56.5921 -138.20384,57.9201 -22.74661,1.3284 -141.14535,-4.9608 -161.7482,-24.8113 -12.89682,-12.426 -17.96894,-24.7842 -17.53009,-37.1012 z"
       id="path4546-6-5"
       inkscape:connector-curvature="0"
       sodipodi:nodetypes="cssssc" />
    <path
       style="color:#000000;fill:#ffffff;fill-opacity:1;fill-rule:nonzero;stroke:none;stroke-width:1.44436002px;marker:none;visibility:visible;display:inline;overflow:visible;enable-background:accumulate"
       d="m 864.03876,3230.3551 c 3.2695,-72.5132 55.06051,-125.3888 172.17374,-111.4026 62.7321,7.4914 145.9745,12.4949 141.0296,118.6795 -4.9449,106.1854 -119.3553,103.1513 -140.5057,105.5719 -21.1504,2.4214 -137.2406,-9.0423 -156.39768,-45.224 -11.99182,-22.6489 -17.31135,-45.1936 -16.29996,-67.6248 z"
       id="path4546-6-5-2"
       inkscape:connector-curvature="0"
       sodipodi:nodetypes="ssssss" />
    <path
       style="fill:#ffffff;fill-rule:evenodd;stroke:none;stroke-width:1px;stroke-linecap:butt;stroke-linejoin:miter;stroke-opacity:1"
       d="m 1373.2637,3271.7707 c 22.5866,-17.8161 34.5507,-17.0035 58.8747,-18.7273 24.3239,-1.7244 84.3852,-5.6068 108.13,-1.0095 23.745,4.5978 46.3316,9.7705 52.123,16.0922 5.7914,6.3217 19.6908,24.7127 19.6908,32.7588 0,8.0461 8.108,34.4827 -6.9497,51.7245 -15.0577,17.2414 -30.1154,29.8854 -57.3351,29.3105 -27.2198,-0.5748 -64.8641,0 -82.8176,0.5749 -17.9534,0.5741 -72.972,-6.8972 -82.8174,-21.8393 -9.8454,-14.9426 -23.7449,-37.3566 -21.4283,-50.0006 2.3166,-12.6435 12.5296,-38.8842 12.5296,-38.8842 z"
       id="path1289"
       inkscape:connector-curvature="0"
       sodipodi:nodetypes="csssssssscc" />
    <path
       style="fill:#ffffff;fill-rule:evenodd;stroke:none;stroke-width:1px;stroke-linecap:butt;stroke-linejoin:miter;stroke-opacity:1"
       d="m 1520.7213,3290.478 c 0,0 0.2613,-30.8716 9.7849,-41.8248 9.5236,-10.953 35.9725,-32.826 61.189,-35.0384 -49.4537,-3.6057 -69.9603,11.1043 -78.3427,19.1018 -8.3839,7.9982 -32.4023,48.2786 -32.4023,48.2786 z"
       id="path1367-3"
       inkscape:connector-curvature="0" />
    <path
       style="color:#000000;display:inline;overflow:visible;visibility:visible;fill:#ffffff;fill-opacity:1;fill-rule:nonzero;stroke:none;stroke-width:1px;marker:none;enable-background:accumulate"
       d="m 371.05804,2770.2315 c -13.44223,35.2759 -28.63005,94.9961 57.30853,115.005 -17.80709,4.5085 -119.29491,-9.1273 -91.99905,-114.8163 7.92058,-30.6682 15.69642,-16.5134 23.06049,-15.8694 7.36416,0.6441 11.63003,15.6807 11.63003,15.6807 z"
       id="path4064-5"
       inkscape:connector-curvature="0"
       sodipodi:nodetypes="ccszc" />
    <path
       style="color:#000000;display:inline;overflow:visible;visibility:visible;fill:#ffffff;fill-opacity:1;fill-rule:nonzero;stroke:none;stroke-width:1px;marker:none;enable-background:accumulate"
       d="m 985.81867,3194.6677 c 41.23993,-57.572 33.73823,-151.8082 -50.60213,-153.341 81.57176,24.5899 42.90889,109.9963 14.4588,139.3816 -19.62934,16.6806 36.14333,13.9594 36.14333,13.9594 z"
       id="path3978-4"
       inkscape:connector-curvature="0"
       sodipodi:nodetypes="cccc" />
  </g>
  <g
     inkscape:groupmode="layer"
     id="layer1"
     inkscape:label="txt">
    <text
       xml:space="preserve"
       style="font-size:45.33330154px;font-style:normal;font-variant:normal;font-weight:normal;font-stretch:normal;text-align:center;line-height:125%;letter-spacing:0px;word-spacing:0px;text-anchor:middle;fill:#000000;fill-opacity:1;stroke:none;font-family:ComicSpice;-inkscape-font-specification:ComicSpice"
       x="290.60724"
       y="216.41437"
       id="text4246-70-2-2-2-7-4-9-9-6-1-2-3-9-2-7-9-3"
       sodipodi:linespacing="125%"><tspan
         sodipodi:role="line"
         style="font-size:45.33330154px;font-style:normal;font-variant:normal;font-weight:normal;font-stretch:normal;font-family:ComicSpice;-inkscape-font-specification:ComicSpice"
         x="290.60724"
         y="216.41437"
         id="tspan1051">Chỗ nào cũng</tspan><tspan
         sodipodi:role="line"
         style="font-size:45.33330154px;font-style:normal;font-variant:normal;font-weight:normal;font-stretch:normal;font-family:ComicSpice;-inkscape-font-specification:ComicSpice"
         x="290.60724"
         y="273.08099"
         id="tspan48842">dán áp phích</tspan><tspan
         sodipodi:role="line"
         style="font-size:45.33330154px;font-style:normal;font-variant:normal;font-weight:normal;font-stretch:normal;font-family:ComicSpice;-inkscape-font-specification:ComicSpice"
         x="290.60724"
         y="329.74762"
         id="tspan48844">truy nã.</tspan></text>
    <text
       xml:space="preserve"
       style="font-size:45.33330154px;font-style:normal;font-variant:normal;font-weight:normal;font-stretch:normal;text-align:center;line-height:125%;letter-spacing:0px;word-spacing:0px;text-anchor:middle;fill:#000000;fill-opacity:1;stroke:none;font-family:ComicSpice;-inkscape-font-specification:ComicSpice"
       x="297.66208"
       y="832.55078"
       id="text4246-70-2-2-2-7-4-9-9-6-1-2-3-9-2-7-9-3-3"
       sodipodi:linespacing="125%"><tspan
         sodipodi:role="line"
         style="font-size:45.33330154px;font-style:normal;font-variant:normal;font-weight:normal;font-stretch:normal;font-family:ComicSpice;-inkscape-font-specification:ComicSpice"
         x="297.66208"
         y="832.55078"
         id="tspan1165">Cũng tìm kiếm</tspan><tspan
         sodipodi:role="line"
         style="font-size:45.33330154px;font-style:normal;font-variant:normal;font-weight:normal;font-stretch:normal;font-family:ComicSpice;-inkscape-font-specification:ComicSpice"
         x="297.66208"
         y="889.21741"
         id="tspan48833">trong những góc</tspan><tspan
         sodipodi:role="line"
         style="font-size:45.33330154px;font-style:normal;font-variant:normal;font-weight:normal;font-stretch:normal;font-family:ComicSpice;-inkscape-font-specification:ComicSpice"
         x="297.66208"
         y="945.88403"
         id="tspan48835">thế giới xa xôi.</tspan></text>
    <text
       xml:space="preserve"
       style="font-size:45.33330154px;font-style:normal;font-variant:normal;font-weight:normal;font-stretch:normal;text-align:center;line-height:125%;letter-spacing:0px;word-spacing:0px;text-anchor:middle;fill:#000000;fill-opacity:1;stroke:none;font-family:ComicSpice;-inkscape-font-specification:ComicSpice"
       x="1423.1024"
       y="199.99611"
       id="text4246-70-2-2-2-7-4-9-9-6-1-2-3-9-2-7-9-3-6"
       sodipodi:linespacing="125%"><tspan
         sodipodi:role="line"
         style="font-size:45.33330154px;font-style:normal;font-variant:normal;font-weight:normal;font-stretch:normal;font-family:ComicSpice;-inkscape-font-specification:ComicSpice"
         x="1423.1024"
         y="199.99611"
         id="tspan1175">Thôi, chúng tôi nên bỏ</tspan><tspan
         sodipodi:role="line"
         style="font-size:45.33330154px;font-style:normal;font-variant:normal;font-weight:normal;font-stretch:normal;font-family:ComicSpice;-inkscape-font-specification:ComicSpice"
         x="1423.1024"
         y="256.66275"
         id="tspan48850">trốn trước bị ai</tspan><tspan
         sodipodi:role="line"
         style="font-size:45.33330154px;font-style:normal;font-variant:normal;font-weight:normal;font-stretch:normal;font-family:ComicSpice;-inkscape-font-specification:ComicSpice"
         x="1423.1024"
         y="313.32938"
         id="tspan48852">phát hiện mình.</tspan></text>
    <text
       xml:space="preserve"
       style="font-size:45.33330154px;font-style:normal;font-variant:normal;font-weight:normal;font-stretch:normal;text-align:center;line-height:125%;letter-spacing:0px;word-spacing:0px;text-anchor:middle;fill:#000000;fill-opacity:1;stroke:none;font-family:ComicSpice;-inkscape-font-specification:ComicSpice"
       x="1535.2148"
       y="408.40094"
       id="text4246-70-2-2-2-7-4-9-9-6-1-2-3-9-2-7-9-3-6-7"
       sodipodi:linespacing="125%"><tspan
         sodipodi:role="line"
         style="font-size:45.33330154px;font-style:normal;font-variant:normal;font-weight:normal;font-stretch:normal;font-family:ComicSpice;-inkscape-font-specification:ComicSpice"
         x="1535.2148"
         y="408.40094"
         id="tspan1237">Bây giờ, phải xử  lý</tspan><tspan
         sodipodi:role="line"
         style="font-size:45.33330154px;font-style:normal;font-variant:normal;font-weight:normal;font-stretch:normal;font-family:ComicSpice;-inkscape-font-specification:ComicSpice"
         x="1535.2148"
         y="465.06757"
         id="tspan48859">những vấn đề lớn hơn...</tspan></text>
    <text
       xml:space="preserve"
       style="font-size:45.33330154px;font-style:normal;font-variant:normal;font-weight:normal;font-stretch:normal;text-align:center;line-height:125%;letter-spacing:0px;word-spacing:0px;text-anchor:middle;fill:#000000;fill-opacity:1;stroke:none;font-family:ComicSpice;-inkscape-font-specification:ComicSpice"
       x="294.23251"
       y="2781.9722"
       id="text4246-70-2-2-2-7-4-9-9-6-1-2-3-9-2-7-9-3-6-7-3"
       sodipodi:linespacing="125%"><tspan
         sodipodi:role="line"
         style="font-size:45.33330154px;font-style:normal;font-variant:normal;font-weight:normal;font-stretch:normal;font-family:ComicSpice;-inkscape-font-specification:ComicSpice"
         x="294.23251"
         y="2781.9722"
         id="tspan62644">Ánh sáng đó...</tspan></text>
    <text
       xml:space="preserve"
       style="font-size:45.33330154px;font-style:normal;font-variant:normal;font-weight:normal;font-stretch:normal;text-align:center;line-height:125%;letter-spacing:0px;word-spacing:0px;text-anchor:middle;fill:#000000;fill-opacity:1;stroke:none;font-family:ComicSpice;-inkscape-font-specification:ComicSpice"
       x="1022.1557"
       y="3187.2583"
       id="text4246-70-2-2-2-7-4-9-9-6-1-2-3-9-2-7-9-3-6-7-3-6"
       sodipodi:linespacing="125%"><tspan
         sodipodi:role="line"
         style="font-size:45.33330154px;font-style:normal;font-variant:normal;font-weight:normal;font-stretch:normal;font-family:ComicSpice;-inkscape-font-specification:ComicSpice"
         x="1022.1557"
         y="3187.2583"
         id="tspan48868">Chắc chúng tôi</tspan><tspan
         sodipodi:role="line"
         style="font-size:45.33330154px;font-style:normal;font-variant:normal;font-weight:normal;font-stretch:normal;font-family:ComicSpice;-inkscape-font-specification:ComicSpice"
         x="1022.1557"
         y="3243.925"
         id="tspan48875">đã tới gần ổ</tspan><tspan
         sodipodi:role="line"
         style="font-size:45.33330154px;font-style:normal;font-variant:normal;font-weight:normal;font-stretch:normal;font-family:ComicSpice;-inkscape-font-specification:ComicSpice"
         x="1022.1557"
         y="3300.5916"
         id="tspan48877">của nó rồi.</tspan></text>
    <text
       xml:space="preserve"
       style="font-size:48.52500153px;font-style:normal;font-variant:normal;font-weight:bold;font-stretch:normal;text-align:center;line-height:125%;letter-spacing:0px;word-spacing:0px;text-anchor:middle;fill:#000000;fill-opacity:1;stroke:none;font-family:ComicSpice;-inkscape-font-specification:ComicSpice Bold"
       x="1490.6833"
       y="3328.5591"
       id="text4246-70-2-2-2-7-4-9-9-6-1-2-3-9-2-7-9-3-6-7-3-6-7"
       sodipodi:linespacing="125%"><tspan
         sodipodi:role="line"
         style="font-size:48.52500153px;font-style:normal;font-variant:normal;font-weight:bold;font-stretch:normal;font-family:ComicSpice;-inkscape-font-specification:ComicSpice Bold"
         x="1490.6833"
         y="3328.5591"
         id="tspan121879-0">Đúng rồi!</tspan></text>
  </g>
</svg>
